<?xml version="1.0" encoding="utf-8" standalone="no"?>
<!DOCTYPE svg PUBLIC "-//W3C//DTD SVG 1.1//EN"
  "http://www.w3.org/Graphics/SVG/1.1/DTD/svg11.dtd">
<svg xmlns:xlink="http://www.w3.org/1999/xlink" width="460.8pt" height="345.6pt" viewBox="0 0 460.8 345.6" xmlns="http://www.w3.org/2000/svg" version="1.1">
 <metadata>
  <rdf:RDF xmlns:dc="http://purl.org/dc/elements/1.1/" xmlns:cc="http://creativecommons.org/ns#" xmlns:rdf="http://www.w3.org/1999/02/22-rdf-syntax-ns#">
   <cc:Work>
    <dc:type rdf:resource="http://purl.org/dc/dcmitype/StillImage"/>
    <dc:date>2023-12-20T18:12:52.782712</dc:date>
    <dc:format>image/svg+xml</dc:format>
    <dc:creator>
     <cc:Agent>
      <dc:title>Matplotlib v3.7.2, https://matplotlib.org/</dc:title>
     </cc:Agent>
    </dc:creator>
   </cc:Work>
  </rdf:RDF>
 </metadata>
 <defs>
  <style type="text/css">*{stroke-linejoin: round; stroke-linecap: butt}</style>
 </defs>
 <g id="figure_1">
  <g id="patch_1">
   <path d="M 0 345.6 
L 460.8 345.6 
L 460.8 0 
L 0 0 
z
" style="fill: #ffffff"/>
  </g>
  <g id="axes_1">
   <g id="patch_2">
    <path d="M 83.428795 263.861528 
Q 92.338974 237.303444 101.604771 209.685391 
" style="fill: none; stroke: #262626; stroke-linecap: round"/>
    <path d="M 84.366095 262.92787 
L 83.428795 263.861528 
L 83.244249 262.551493 
" style="fill: none; stroke: #262626; stroke-linecap: round"/>
   </g>
   <g id="text_1">
    <g id="patch_3">
     <path d="M 68.942117 281.285802 
L 90.897883 281.285802 
Q 91.785358 281.285802 91.785358 280.398327 
L 91.785358 268.207006 
Q 91.785358 267.319531 90.897883 267.319531 
L 68.942117 267.319531 
Q 68.054642 267.319531 68.054642 268.207006 
L 68.054642 280.398327 
Q 68.054642 281.285802 68.942117 281.285802 
z
" style="fill: #e5833c; stroke: #ffffff; stroke-linejoin: miter"/>
    </g>
    <!-- gini = 0.031 -->
    <g style="fill: #262626" transform="translate(72.23086 270.367916) scale(0.029583 -0.029583)">
     <defs>
      <path id="ArialMT-67" d="M 319 -275 
L 866 -356 
Q 900 -609 1056 -725 
Q 1266 -881 1628 -881 
Q 2019 -881 2231 -725 
Q 2444 -569 2519 -288 
Q 2563 -116 2559 434 
Q 2191 0 1641 0 
Q 956 0 581 494 
Q 206 988 206 1678 
Q 206 2153 378 2554 
Q 550 2956 876 3175 
Q 1203 3394 1644 3394 
Q 2231 3394 2613 2919 
L 2613 3319 
L 3131 3319 
L 3131 450 
Q 3131 -325 2973 -648 
Q 2816 -972 2473 -1159 
Q 2131 -1347 1631 -1347 
Q 1038 -1347 672 -1080 
Q 306 -813 319 -275 
z
M 784 1719 
Q 784 1066 1043 766 
Q 1303 466 1694 466 
Q 2081 466 2343 764 
Q 2606 1063 2606 1700 
Q 2606 2309 2336 2618 
Q 2066 2928 1684 2928 
Q 1309 2928 1046 2623 
Q 784 2319 784 1719 
z
" transform="scale(0.015625)"/>
      <path id="ArialMT-69" d="M 425 3934 
L 425 4581 
L 988 4581 
L 988 3934 
L 425 3934 
z
M 425 0 
L 425 3319 
L 988 3319 
L 988 0 
L 425 0 
z
" transform="scale(0.015625)"/>
      <path id="ArialMT-6e" d="M 422 0 
L 422 3319 
L 928 3319 
L 928 2847 
Q 1294 3394 1984 3394 
Q 2284 3394 2536 3286 
Q 2788 3178 2913 3003 
Q 3038 2828 3088 2588 
Q 3119 2431 3119 2041 
L 3119 0 
L 2556 0 
L 2556 2019 
Q 2556 2363 2490 2533 
Q 2425 2703 2258 2804 
Q 2091 2906 1866 2906 
Q 1506 2906 1245 2678 
Q 984 2450 984 1813 
L 984 0 
L 422 0 
z
" transform="scale(0.015625)"/>
      <path id="ArialMT-20" transform="scale(0.015625)"/>
      <path id="ArialMT-3d" d="M 3381 2694 
L 356 2694 
L 356 3219 
L 3381 3219 
L 3381 2694 
z
M 3381 1303 
L 356 1303 
L 356 1828 
L 3381 1828 
L 3381 1303 
z
" transform="scale(0.015625)"/>
      <path id="ArialMT-30" d="M 266 2259 
Q 266 3072 433 3567 
Q 600 4063 929 4331 
Q 1259 4600 1759 4600 
Q 2128 4600 2406 4451 
Q 2684 4303 2865 4023 
Q 3047 3744 3150 3342 
Q 3253 2941 3253 2259 
Q 3253 1453 3087 958 
Q 2922 463 2592 192 
Q 2263 -78 1759 -78 
Q 1097 -78 719 397 
Q 266 969 266 2259 
z
M 844 2259 
Q 844 1131 1108 757 
Q 1372 384 1759 384 
Q 2147 384 2411 759 
Q 2675 1134 2675 2259 
Q 2675 3391 2411 3762 
Q 2147 4134 1753 4134 
Q 1366 4134 1134 3806 
Q 844 3388 844 2259 
z
" transform="scale(0.015625)"/>
      <path id="ArialMT-2e" d="M 581 0 
L 581 641 
L 1222 641 
L 1222 0 
L 581 0 
z
" transform="scale(0.015625)"/>
      <path id="ArialMT-33" d="M 269 1209 
L 831 1284 
Q 928 806 1161 595 
Q 1394 384 1728 384 
Q 2125 384 2398 659 
Q 2672 934 2672 1341 
Q 2672 1728 2419 1979 
Q 2166 2231 1775 2231 
Q 1616 2231 1378 2169 
L 1441 2663 
Q 1497 2656 1531 2656 
Q 1891 2656 2178 2843 
Q 2466 3031 2466 3422 
Q 2466 3731 2256 3934 
Q 2047 4138 1716 4138 
Q 1388 4138 1169 3931 
Q 950 3725 888 3313 
L 325 3413 
Q 428 3978 793 4289 
Q 1159 4600 1703 4600 
Q 2078 4600 2393 4439 
Q 2709 4278 2876 4000 
Q 3044 3722 3044 3409 
Q 3044 3113 2884 2869 
Q 2725 2625 2413 2481 
Q 2819 2388 3044 2092 
Q 3269 1797 3269 1353 
Q 3269 753 2831 336 
Q 2394 -81 1725 -81 
Q 1122 -81 723 278 
Q 325 638 269 1209 
z
" transform="scale(0.015625)"/>
      <path id="ArialMT-31" d="M 2384 0 
L 1822 0 
L 1822 3584 
Q 1619 3391 1289 3197 
Q 959 3003 697 2906 
L 697 3450 
Q 1169 3672 1522 3987 
Q 1875 4303 2022 4600 
L 2384 4600 
L 2384 0 
z
" transform="scale(0.015625)"/>
     </defs>
     <use xlink:href="#ArialMT-67"/>
     <use xlink:href="#ArialMT-69" x="55.615234"/>
     <use xlink:href="#ArialMT-6e" x="77.832031"/>
     <use xlink:href="#ArialMT-69" x="133.447266"/>
     <use xlink:href="#ArialMT-20" x="155.664062"/>
     <use xlink:href="#ArialMT-3d" x="183.447266"/>
     <use xlink:href="#ArialMT-20" x="241.845703"/>
     <use xlink:href="#ArialMT-30" x="269.628906"/>
     <use xlink:href="#ArialMT-2e" x="325.244141"/>
     <use xlink:href="#ArialMT-30" x="353.027344"/>
     <use xlink:href="#ArialMT-33" x="408.642578"/>
     <use xlink:href="#ArialMT-31" x="464.257812"/>
    </g>
    <!-- samples = 875 -->
    <g style="fill: #262626" transform="translate(70.259232 273.542026) scale(0.029583 -0.029583)">
     <defs>
      <path id="ArialMT-73" d="M 197 991 
L 753 1078 
Q 800 744 1014 566 
Q 1228 388 1613 388 
Q 2000 388 2187 545 
Q 2375 703 2375 916 
Q 2375 1106 2209 1216 
Q 2094 1291 1634 1406 
Q 1016 1563 777 1677 
Q 538 1791 414 1992 
Q 291 2194 291 2438 
Q 291 2659 392 2848 
Q 494 3038 669 3163 
Q 800 3259 1026 3326 
Q 1253 3394 1513 3394 
Q 1903 3394 2198 3281 
Q 2494 3169 2634 2976 
Q 2775 2784 2828 2463 
L 2278 2388 
Q 2241 2644 2061 2787 
Q 1881 2931 1553 2931 
Q 1166 2931 1000 2803 
Q 834 2675 834 2503 
Q 834 2394 903 2306 
Q 972 2216 1119 2156 
Q 1203 2125 1616 2013 
Q 2213 1853 2448 1751 
Q 2684 1650 2818 1456 
Q 2953 1263 2953 975 
Q 2953 694 2789 445 
Q 2625 197 2315 61 
Q 2006 -75 1616 -75 
Q 969 -75 630 194 
Q 291 463 197 991 
z
" transform="scale(0.015625)"/>
      <path id="ArialMT-61" d="M 2588 409 
Q 2275 144 1986 34 
Q 1697 -75 1366 -75 
Q 819 -75 525 192 
Q 231 459 231 875 
Q 231 1119 342 1320 
Q 453 1522 633 1644 
Q 813 1766 1038 1828 
Q 1203 1872 1538 1913 
Q 2219 1994 2541 2106 
Q 2544 2222 2544 2253 
Q 2544 2597 2384 2738 
Q 2169 2928 1744 2928 
Q 1347 2928 1158 2789 
Q 969 2650 878 2297 
L 328 2372 
Q 403 2725 575 2942 
Q 747 3159 1072 3276 
Q 1397 3394 1825 3394 
Q 2250 3394 2515 3294 
Q 2781 3194 2906 3042 
Q 3031 2891 3081 2659 
Q 3109 2516 3109 2141 
L 3109 1391 
Q 3109 606 3145 398 
Q 3181 191 3288 0 
L 2700 0 
Q 2613 175 2588 409 
z
M 2541 1666 
Q 2234 1541 1622 1453 
Q 1275 1403 1131 1340 
Q 988 1278 909 1158 
Q 831 1038 831 891 
Q 831 666 1001 516 
Q 1172 366 1500 366 
Q 1825 366 2078 508 
Q 2331 650 2450 897 
Q 2541 1088 2541 1459 
L 2541 1666 
z
" transform="scale(0.015625)"/>
      <path id="ArialMT-6d" d="M 422 0 
L 422 3319 
L 925 3319 
L 925 2853 
Q 1081 3097 1340 3245 
Q 1600 3394 1931 3394 
Q 2300 3394 2536 3241 
Q 2772 3088 2869 2813 
Q 3263 3394 3894 3394 
Q 4388 3394 4653 3120 
Q 4919 2847 4919 2278 
L 4919 0 
L 4359 0 
L 4359 2091 
Q 4359 2428 4304 2576 
Q 4250 2725 4106 2815 
Q 3963 2906 3769 2906 
Q 3419 2906 3187 2673 
Q 2956 2441 2956 1928 
L 2956 0 
L 2394 0 
L 2394 2156 
Q 2394 2531 2256 2718 
Q 2119 2906 1806 2906 
Q 1569 2906 1367 2781 
Q 1166 2656 1075 2415 
Q 984 2175 984 1722 
L 984 0 
L 422 0 
z
" transform="scale(0.015625)"/>
      <path id="ArialMT-70" d="M 422 -1272 
L 422 3319 
L 934 3319 
L 934 2888 
Q 1116 3141 1344 3267 
Q 1572 3394 1897 3394 
Q 2322 3394 2647 3175 
Q 2972 2956 3137 2557 
Q 3303 2159 3303 1684 
Q 3303 1175 3120 767 
Q 2938 359 2589 142 
Q 2241 -75 1856 -75 
Q 1575 -75 1351 44 
Q 1128 163 984 344 
L 984 -1272 
L 422 -1272 
z
M 931 1641 
Q 931 1000 1190 694 
Q 1450 388 1819 388 
Q 2194 388 2461 705 
Q 2728 1022 2728 1688 
Q 2728 2322 2467 2637 
Q 2206 2953 1844 2953 
Q 1484 2953 1207 2617 
Q 931 2281 931 1641 
z
" transform="scale(0.015625)"/>
      <path id="ArialMT-6c" d="M 409 0 
L 409 4581 
L 972 4581 
L 972 0 
L 409 0 
z
" transform="scale(0.015625)"/>
      <path id="ArialMT-65" d="M 2694 1069 
L 3275 997 
Q 3138 488 2766 206 
Q 2394 -75 1816 -75 
Q 1088 -75 661 373 
Q 234 822 234 1631 
Q 234 2469 665 2931 
Q 1097 3394 1784 3394 
Q 2450 3394 2872 2941 
Q 3294 2488 3294 1666 
Q 3294 1616 3291 1516 
L 816 1516 
Q 847 969 1125 678 
Q 1403 388 1819 388 
Q 2128 388 2347 550 
Q 2566 713 2694 1069 
z
M 847 1978 
L 2700 1978 
Q 2663 2397 2488 2606 
Q 2219 2931 1791 2931 
Q 1403 2931 1139 2672 
Q 875 2413 847 1978 
z
" transform="scale(0.015625)"/>
      <path id="ArialMT-38" d="M 1131 2484 
Q 781 2613 612 2850 
Q 444 3088 444 3419 
Q 444 3919 803 4259 
Q 1163 4600 1759 4600 
Q 2359 4600 2725 4251 
Q 3091 3903 3091 3403 
Q 3091 3084 2923 2848 
Q 2756 2613 2416 2484 
Q 2838 2347 3058 2040 
Q 3278 1734 3278 1309 
Q 3278 722 2862 322 
Q 2447 -78 1769 -78 
Q 1091 -78 675 323 
Q 259 725 259 1325 
Q 259 1772 486 2073 
Q 713 2375 1131 2484 
z
M 1019 3438 
Q 1019 3113 1228 2906 
Q 1438 2700 1772 2700 
Q 2097 2700 2305 2904 
Q 2513 3109 2513 3406 
Q 2513 3716 2298 3927 
Q 2084 4138 1766 4138 
Q 1444 4138 1231 3931 
Q 1019 3725 1019 3438 
z
M 838 1322 
Q 838 1081 952 856 
Q 1066 631 1291 507 
Q 1516 384 1775 384 
Q 2178 384 2440 643 
Q 2703 903 2703 1303 
Q 2703 1709 2433 1975 
Q 2163 2241 1756 2241 
Q 1359 2241 1098 1978 
Q 838 1716 838 1322 
z
" transform="scale(0.015625)"/>
      <path id="ArialMT-37" d="M 303 3981 
L 303 4522 
L 3269 4522 
L 3269 4084 
Q 2831 3619 2401 2847 
Q 1972 2075 1738 1259 
Q 1569 684 1522 0 
L 944 0 
Q 953 541 1156 1306 
Q 1359 2072 1739 2783 
Q 2119 3494 2547 3981 
L 303 3981 
z
" transform="scale(0.015625)"/>
      <path id="ArialMT-35" d="M 266 1200 
L 856 1250 
Q 922 819 1161 601 
Q 1400 384 1738 384 
Q 2144 384 2425 690 
Q 2706 997 2706 1503 
Q 2706 1984 2436 2262 
Q 2166 2541 1728 2541 
Q 1456 2541 1237 2417 
Q 1019 2294 894 2097 
L 366 2166 
L 809 4519 
L 3088 4519 
L 3088 3981 
L 1259 3981 
L 1013 2750 
Q 1425 3038 1878 3038 
Q 2478 3038 2890 2622 
Q 3303 2206 3303 1553 
Q 3303 931 2941 478 
Q 2500 -78 1738 -78 
Q 1113 -78 717 272 
Q 322 622 266 1200 
z
" transform="scale(0.015625)"/>
     </defs>
     <use xlink:href="#ArialMT-73"/>
     <use xlink:href="#ArialMT-61" x="50"/>
     <use xlink:href="#ArialMT-6d" x="105.615234"/>
     <use xlink:href="#ArialMT-70" x="188.916016"/>
     <use xlink:href="#ArialMT-6c" x="244.53125"/>
     <use xlink:href="#ArialMT-65" x="266.748047"/>
     <use xlink:href="#ArialMT-73" x="322.363281"/>
     <use xlink:href="#ArialMT-20" x="372.363281"/>
     <use xlink:href="#ArialMT-3d" x="400.146484"/>
     <use xlink:href="#ArialMT-20" x="458.544922"/>
     <use xlink:href="#ArialMT-38" x="486.328125"/>
     <use xlink:href="#ArialMT-37" x="541.943359"/>
     <use xlink:href="#ArialMT-35" x="597.558594"/>
    </g>
    <!-- value = [861, 14] -->
    <g style="fill: #262626" transform="translate(68.942117 276.68147) scale(0.029583 -0.029583)">
     <defs>
      <path id="ArialMT-76" d="M 1344 0 
L 81 3319 
L 675 3319 
L 1388 1331 
Q 1503 1009 1600 663 
Q 1675 925 1809 1294 
L 2547 3319 
L 3125 3319 
L 1869 0 
L 1344 0 
z
" transform="scale(0.015625)"/>
      <path id="ArialMT-75" d="M 2597 0 
L 2597 488 
Q 2209 -75 1544 -75 
Q 1250 -75 995 37 
Q 741 150 617 320 
Q 494 491 444 738 
Q 409 903 409 1263 
L 409 3319 
L 972 3319 
L 972 1478 
Q 972 1038 1006 884 
Q 1059 663 1231 536 
Q 1403 409 1656 409 
Q 1909 409 2131 539 
Q 2353 669 2445 892 
Q 2538 1116 2538 1541 
L 2538 3319 
L 3100 3319 
L 3100 0 
L 2597 0 
z
" transform="scale(0.015625)"/>
      <path id="ArialMT-5b" d="M 434 -1272 
L 434 4581 
L 1675 4581 
L 1675 4116 
L 997 4116 
L 997 -806 
L 1675 -806 
L 1675 -1272 
L 434 -1272 
z
" transform="scale(0.015625)"/>
      <path id="ArialMT-36" d="M 3184 3459 
L 2625 3416 
Q 2550 3747 2413 3897 
Q 2184 4138 1850 4138 
Q 1581 4138 1378 3988 
Q 1113 3794 959 3422 
Q 806 3050 800 2363 
Q 1003 2672 1297 2822 
Q 1591 2972 1913 2972 
Q 2475 2972 2870 2558 
Q 3266 2144 3266 1488 
Q 3266 1056 3080 686 
Q 2894 316 2569 119 
Q 2244 -78 1831 -78 
Q 1128 -78 684 439 
Q 241 956 241 2144 
Q 241 3472 731 4075 
Q 1159 4600 1884 4600 
Q 2425 4600 2770 4297 
Q 3116 3994 3184 3459 
z
M 888 1484 
Q 888 1194 1011 928 
Q 1134 663 1356 523 
Q 1578 384 1822 384 
Q 2178 384 2434 671 
Q 2691 959 2691 1453 
Q 2691 1928 2437 2201 
Q 2184 2475 1800 2475 
Q 1419 2475 1153 2201 
Q 888 1928 888 1484 
z
" transform="scale(0.015625)"/>
      <path id="ArialMT-2c" d="M 569 0 
L 569 641 
L 1209 641 
L 1209 0 
Q 1209 -353 1084 -570 
Q 959 -788 688 -906 
L 531 -666 
Q 709 -588 793 -436 
Q 878 -284 888 0 
L 569 0 
z
" transform="scale(0.015625)"/>
      <path id="ArialMT-34" d="M 2069 0 
L 2069 1097 
L 81 1097 
L 81 1613 
L 2172 4581 
L 2631 4581 
L 2631 1613 
L 3250 1613 
L 3250 1097 
L 2631 1097 
L 2631 0 
L 2069 0 
z
M 2069 1613 
L 2069 3678 
L 634 1613 
L 2069 1613 
z
" transform="scale(0.015625)"/>
      <path id="ArialMT-5d" d="M 1363 -1272 
L 122 -1272 
L 122 -806 
L 800 -806 
L 800 4116 
L 122 4116 
L 122 4581 
L 1363 4581 
L 1363 -1272 
z
" transform="scale(0.015625)"/>
     </defs>
     <use xlink:href="#ArialMT-76"/>
     <use xlink:href="#ArialMT-61" x="50"/>
     <use xlink:href="#ArialMT-6c" x="105.615234"/>
     <use xlink:href="#ArialMT-75" x="127.832031"/>
     <use xlink:href="#ArialMT-65" x="183.447266"/>
     <use xlink:href="#ArialMT-20" x="239.0625"/>
     <use xlink:href="#ArialMT-3d" x="266.845703"/>
     <use xlink:href="#ArialMT-20" x="325.244141"/>
     <use xlink:href="#ArialMT-5b" x="353.027344"/>
     <use xlink:href="#ArialMT-38" x="380.810547"/>
     <use xlink:href="#ArialMT-36" x="436.425781"/>
     <use xlink:href="#ArialMT-31" x="492.041016"/>
     <use xlink:href="#ArialMT-2c" x="547.65625"/>
     <use xlink:href="#ArialMT-20" x="575.439453"/>
     <use xlink:href="#ArialMT-31" x="603.222656"/>
     <use xlink:href="#ArialMT-34" x="658.837891"/>
     <use xlink:href="#ArialMT-5d" x="714.453125"/>
    </g>
    <!-- class = No -->
    <g style="fill: #262626" transform="translate(72.973658 279.810374) scale(0.029583 -0.029583)">
     <defs>
      <path id="ArialMT-63" d="M 2588 1216 
L 3141 1144 
Q 3050 572 2676 248 
Q 2303 -75 1759 -75 
Q 1078 -75 664 370 
Q 250 816 250 1647 
Q 250 2184 428 2587 
Q 606 2991 970 3192 
Q 1334 3394 1763 3394 
Q 2303 3394 2647 3120 
Q 2991 2847 3088 2344 
L 2541 2259 
Q 2463 2594 2264 2762 
Q 2066 2931 1784 2931 
Q 1359 2931 1093 2626 
Q 828 2322 828 1663 
Q 828 994 1084 691 
Q 1341 388 1753 388 
Q 2084 388 2306 591 
Q 2528 794 2588 1216 
z
" transform="scale(0.015625)"/>
      <path id="ArialMT-4e" d="M 488 0 
L 488 4581 
L 1109 4581 
L 3516 984 
L 3516 4581 
L 4097 4581 
L 4097 0 
L 3475 0 
L 1069 3600 
L 1069 0 
L 488 0 
z
" transform="scale(0.015625)"/>
      <path id="ArialMT-6f" d="M 213 1659 
Q 213 2581 725 3025 
Q 1153 3394 1769 3394 
Q 2453 3394 2887 2945 
Q 3322 2497 3322 1706 
Q 3322 1066 3130 698 
Q 2938 331 2570 128 
Q 2203 -75 1769 -75 
Q 1072 -75 642 372 
Q 213 819 213 1659 
z
M 791 1659 
Q 791 1022 1069 705 
Q 1347 388 1769 388 
Q 2188 388 2466 706 
Q 2744 1025 2744 1678 
Q 2744 2294 2464 2611 
Q 2184 2928 1769 2928 
Q 1347 2928 1069 2612 
Q 791 2297 791 1659 
z
" transform="scale(0.015625)"/>
     </defs>
     <use xlink:href="#ArialMT-63"/>
     <use xlink:href="#ArialMT-6c" x="50"/>
     <use xlink:href="#ArialMT-61" x="72.216797"/>
     <use xlink:href="#ArialMT-73" x="127.832031"/>
     <use xlink:href="#ArialMT-73" x="177.832031"/>
     <use xlink:href="#ArialMT-20" x="227.832031"/>
     <use xlink:href="#ArialMT-3d" x="255.615234"/>
     <use xlink:href="#ArialMT-20" x="314.013672"/>
     <use xlink:href="#ArialMT-4e" x="341.796875"/>
     <use xlink:href="#ArialMT-6f" x="414.013672"/>
    </g>
   </g>
   <g id="patch_4">
    <path d="M 121.051205 263.861528 
Q 112.141026 237.303444 102.875229 209.685391 
" style="fill: none; stroke: #262626; stroke-linecap: round"/>
    <path d="M 121.235751 262.551493 
L 121.051205 263.861528 
L 120.113905 262.92787 
" style="fill: none; stroke: #262626; stroke-linecap: round"/>
   </g>
   <g id="text_2">
    <g id="patch_5">
     <path d="M 113.582117 281.285802 
L 135.537883 281.285802 
Q 136.425358 281.285802 136.425358 280.398327 
L 136.425358 268.207006 
Q 136.425358 267.319531 135.537883 267.319531 
L 113.582117 267.319531 
Q 112.694642 267.319531 112.694642 268.207006 
L 112.694642 280.398327 
Q 112.694642 281.285802 113.582117 281.285802 
z
" style="fill: #e78946; stroke: #ffffff; stroke-linejoin: miter"/>
    </g>
    <!-- gini = 0.117 -->
    <g style="fill: #262626" transform="translate(116.979945 270.367916) scale(0.029583 -0.029583)">
     <use xlink:href="#ArialMT-67"/>
     <use xlink:href="#ArialMT-69" x="55.615234"/>
     <use xlink:href="#ArialMT-6e" x="77.832031"/>
     <use xlink:href="#ArialMT-69" x="133.447266"/>
     <use xlink:href="#ArialMT-20" x="155.664062"/>
     <use xlink:href="#ArialMT-3d" x="183.447266"/>
     <use xlink:href="#ArialMT-20" x="241.845703"/>
     <use xlink:href="#ArialMT-30" x="269.628906"/>
     <use xlink:href="#ArialMT-2e" x="325.244141"/>
     <use xlink:href="#ArialMT-31" x="353.027344"/>
     <use xlink:href="#ArialMT-31" x="401.267578"/>
     <use xlink:href="#ArialMT-37" x="456.882812"/>
    </g>
    <!-- samples = 704 -->
    <g style="fill: #262626" transform="translate(114.899232 273.542026) scale(0.029583 -0.029583)">
     <use xlink:href="#ArialMT-73"/>
     <use xlink:href="#ArialMT-61" x="50"/>
     <use xlink:href="#ArialMT-6d" x="105.615234"/>
     <use xlink:href="#ArialMT-70" x="188.916016"/>
     <use xlink:href="#ArialMT-6c" x="244.53125"/>
     <use xlink:href="#ArialMT-65" x="266.748047"/>
     <use xlink:href="#ArialMT-73" x="322.363281"/>
     <use xlink:href="#ArialMT-20" x="372.363281"/>
     <use xlink:href="#ArialMT-3d" x="400.146484"/>
     <use xlink:href="#ArialMT-20" x="458.544922"/>
     <use xlink:href="#ArialMT-37" x="486.328125"/>
     <use xlink:href="#ArialMT-30" x="541.943359"/>
     <use xlink:href="#ArialMT-34" x="597.558594"/>
    </g>
    <!-- value = [660, 44] -->
    <g style="fill: #262626" transform="translate(113.582117 276.68147) scale(0.029583 -0.029583)">
     <use xlink:href="#ArialMT-76"/>
     <use xlink:href="#ArialMT-61" x="50"/>
     <use xlink:href="#ArialMT-6c" x="105.615234"/>
     <use xlink:href="#ArialMT-75" x="127.832031"/>
     <use xlink:href="#ArialMT-65" x="183.447266"/>
     <use xlink:href="#ArialMT-20" x="239.0625"/>
     <use xlink:href="#ArialMT-3d" x="266.845703"/>
     <use xlink:href="#ArialMT-20" x="325.244141"/>
     <use xlink:href="#ArialMT-5b" x="353.027344"/>
     <use xlink:href="#ArialMT-36" x="380.810547"/>
     <use xlink:href="#ArialMT-36" x="436.425781"/>
     <use xlink:href="#ArialMT-30" x="492.041016"/>
     <use xlink:href="#ArialMT-2c" x="547.65625"/>
     <use xlink:href="#ArialMT-20" x="575.439453"/>
     <use xlink:href="#ArialMT-34" x="603.222656"/>
     <use xlink:href="#ArialMT-34" x="658.837891"/>
     <use xlink:href="#ArialMT-5d" x="714.453125"/>
    </g>
    <!-- class = No -->
    <g style="fill: #262626" transform="translate(117.613658 279.810374) scale(0.029583 -0.029583)">
     <use xlink:href="#ArialMT-63"/>
     <use xlink:href="#ArialMT-6c" x="50"/>
     <use xlink:href="#ArialMT-61" x="72.216797"/>
     <use xlink:href="#ArialMT-73" x="127.832031"/>
     <use xlink:href="#ArialMT-73" x="177.832031"/>
     <use xlink:href="#ArialMT-20" x="227.832031"/>
     <use xlink:href="#ArialMT-3d" x="255.615234"/>
     <use xlink:href="#ArialMT-20" x="314.013672"/>
     <use xlink:href="#ArialMT-4e" x="341.796875"/>
     <use xlink:href="#ArialMT-6f" x="414.013672"/>
    </g>
   </g>
   <g id="patch_6">
    <path d="M 172.708795 263.861528 
Q 181.618974 237.303444 190.884771 209.685391 
" style="fill: none; stroke: #262626; stroke-linecap: round"/>
    <path d="M 173.646095 262.92787 
L 172.708795 263.861528 
L 172.524249 262.551493 
" style="fill: none; stroke: #262626; stroke-linecap: round"/>
   </g>
   <g id="text_3">
    <g id="patch_7">
     <path d="M 158.222117 281.285802 
L 180.177883 281.285802 
Q 181.065358 281.285802 181.065358 280.398327 
L 181.065358 268.207006 
Q 181.065358 267.319531 180.177883 267.319531 
L 158.222117 267.319531 
Q 157.334642 267.319531 157.334642 268.207006 
L 157.334642 280.398327 
Q 157.334642 281.285802 158.222117 281.285802 
z
" style="fill: #e88f4f; stroke: #ffffff; stroke-linejoin: miter"/>
    </g>
    <!-- gini = 0.181 -->
    <g style="fill: #262626" transform="translate(161.51086 270.367916) scale(0.029583 -0.029583)">
     <use xlink:href="#ArialMT-67"/>
     <use xlink:href="#ArialMT-69" x="55.615234"/>
     <use xlink:href="#ArialMT-6e" x="77.832031"/>
     <use xlink:href="#ArialMT-69" x="133.447266"/>
     <use xlink:href="#ArialMT-20" x="155.664062"/>
     <use xlink:href="#ArialMT-3d" x="183.447266"/>
     <use xlink:href="#ArialMT-20" x="241.845703"/>
     <use xlink:href="#ArialMT-30" x="269.628906"/>
     <use xlink:href="#ArialMT-2e" x="325.244141"/>
     <use xlink:href="#ArialMT-31" x="353.027344"/>
     <use xlink:href="#ArialMT-38" x="408.642578"/>
     <use xlink:href="#ArialMT-31" x="464.257812"/>
    </g>
    <!-- samples = 347 -->
    <g style="fill: #262626" transform="translate(159.539232 273.542026) scale(0.029583 -0.029583)">
     <use xlink:href="#ArialMT-73"/>
     <use xlink:href="#ArialMT-61" x="50"/>
     <use xlink:href="#ArialMT-6d" x="105.615234"/>
     <use xlink:href="#ArialMT-70" x="188.916016"/>
     <use xlink:href="#ArialMT-6c" x="244.53125"/>
     <use xlink:href="#ArialMT-65" x="266.748047"/>
     <use xlink:href="#ArialMT-73" x="322.363281"/>
     <use xlink:href="#ArialMT-20" x="372.363281"/>
     <use xlink:href="#ArialMT-3d" x="400.146484"/>
     <use xlink:href="#ArialMT-20" x="458.544922"/>
     <use xlink:href="#ArialMT-33" x="486.328125"/>
     <use xlink:href="#ArialMT-34" x="541.943359"/>
     <use xlink:href="#ArialMT-37" x="597.558594"/>
    </g>
    <!-- value = [312, 35] -->
    <g style="fill: #262626" transform="translate(158.222117 276.68147) scale(0.029583 -0.029583)">
     <defs>
      <path id="ArialMT-32" d="M 3222 541 
L 3222 0 
L 194 0 
Q 188 203 259 391 
Q 375 700 629 1000 
Q 884 1300 1366 1694 
Q 2113 2306 2375 2664 
Q 2638 3022 2638 3341 
Q 2638 3675 2398 3904 
Q 2159 4134 1775 4134 
Q 1369 4134 1125 3890 
Q 881 3647 878 3216 
L 300 3275 
Q 359 3922 746 4261 
Q 1134 4600 1788 4600 
Q 2447 4600 2831 4234 
Q 3216 3869 3216 3328 
Q 3216 3053 3103 2787 
Q 2991 2522 2730 2228 
Q 2469 1934 1863 1422 
Q 1356 997 1212 845 
Q 1069 694 975 541 
L 3222 541 
z
" transform="scale(0.015625)"/>
     </defs>
     <use xlink:href="#ArialMT-76"/>
     <use xlink:href="#ArialMT-61" x="50"/>
     <use xlink:href="#ArialMT-6c" x="105.615234"/>
     <use xlink:href="#ArialMT-75" x="127.832031"/>
     <use xlink:href="#ArialMT-65" x="183.447266"/>
     <use xlink:href="#ArialMT-20" x="239.0625"/>
     <use xlink:href="#ArialMT-3d" x="266.845703"/>
     <use xlink:href="#ArialMT-20" x="325.244141"/>
     <use xlink:href="#ArialMT-5b" x="353.027344"/>
     <use xlink:href="#ArialMT-33" x="380.810547"/>
     <use xlink:href="#ArialMT-31" x="436.425781"/>
     <use xlink:href="#ArialMT-32" x="492.041016"/>
     <use xlink:href="#ArialMT-2c" x="547.65625"/>
     <use xlink:href="#ArialMT-20" x="575.439453"/>
     <use xlink:href="#ArialMT-33" x="603.222656"/>
     <use xlink:href="#ArialMT-35" x="658.837891"/>
     <use xlink:href="#ArialMT-5d" x="714.453125"/>
    </g>
    <!-- class = No -->
    <g style="fill: #262626" transform="translate(162.253658 279.810374) scale(0.029583 -0.029583)">
     <use xlink:href="#ArialMT-63"/>
     <use xlink:href="#ArialMT-6c" x="50"/>
     <use xlink:href="#ArialMT-61" x="72.216797"/>
     <use xlink:href="#ArialMT-73" x="127.832031"/>
     <use xlink:href="#ArialMT-73" x="177.832031"/>
     <use xlink:href="#ArialMT-20" x="227.832031"/>
     <use xlink:href="#ArialMT-3d" x="255.615234"/>
     <use xlink:href="#ArialMT-20" x="314.013672"/>
     <use xlink:href="#ArialMT-4e" x="341.796875"/>
     <use xlink:href="#ArialMT-6f" x="414.013672"/>
    </g>
   </g>
   <g id="patch_8">
    <path d="M 210.331205 263.861528 
Q 201.421026 237.303444 192.155229 209.685391 
" style="fill: none; stroke: #262626; stroke-linecap: round"/>
    <path d="M 210.515751 262.551493 
L 210.331205 263.861528 
L 209.393905 262.92787 
" style="fill: none; stroke: #262626; stroke-linecap: round"/>
   </g>
   <g id="text_4">
    <g id="patch_9">
     <path d="M 202.862117 281.285802 
L 224.817883 281.285802 
Q 225.705358 281.285802 225.705358 280.398327 
L 225.705358 268.207006 
Q 225.705358 267.319531 224.817883 267.319531 
L 202.862117 267.319531 
Q 201.974642 267.319531 201.974642 268.207006 
L 201.974642 280.398327 
Q 201.974642 281.285802 202.862117 281.285802 
z
" style="fill: #eb9d65; stroke: #ffffff; stroke-linejoin: miter"/>
    </g>
    <!-- gini = 0.296 -->
    <g style="fill: #262626" transform="translate(206.15086 270.367916) scale(0.029583 -0.029583)">
     <defs>
      <path id="ArialMT-39" d="M 350 1059 
L 891 1109 
Q 959 728 1153 556 
Q 1347 384 1650 384 
Q 1909 384 2104 503 
Q 2300 622 2425 820 
Q 2550 1019 2634 1356 
Q 2719 1694 2719 2044 
Q 2719 2081 2716 2156 
Q 2547 1888 2255 1720 
Q 1963 1553 1622 1553 
Q 1053 1553 659 1965 
Q 266 2378 266 3053 
Q 266 3750 677 4175 
Q 1088 4600 1706 4600 
Q 2153 4600 2523 4359 
Q 2894 4119 3086 3673 
Q 3278 3228 3278 2384 
Q 3278 1506 3087 986 
Q 2897 466 2520 194 
Q 2144 -78 1638 -78 
Q 1100 -78 759 220 
Q 419 519 350 1059 
z
M 2653 3081 
Q 2653 3566 2395 3850 
Q 2138 4134 1775 4134 
Q 1400 4134 1122 3828 
Q 844 3522 844 3034 
Q 844 2597 1108 2323 
Q 1372 2050 1759 2050 
Q 2150 2050 2401 2323 
Q 2653 2597 2653 3081 
z
" transform="scale(0.015625)"/>
     </defs>
     <use xlink:href="#ArialMT-67"/>
     <use xlink:href="#ArialMT-69" x="55.615234"/>
     <use xlink:href="#ArialMT-6e" x="77.832031"/>
     <use xlink:href="#ArialMT-69" x="133.447266"/>
     <use xlink:href="#ArialMT-20" x="155.664062"/>
     <use xlink:href="#ArialMT-3d" x="183.447266"/>
     <use xlink:href="#ArialMT-20" x="241.845703"/>
     <use xlink:href="#ArialMT-30" x="269.628906"/>
     <use xlink:href="#ArialMT-2e" x="325.244141"/>
     <use xlink:href="#ArialMT-32" x="353.027344"/>
     <use xlink:href="#ArialMT-39" x="408.642578"/>
     <use xlink:href="#ArialMT-36" x="464.257812"/>
    </g>
    <!-- samples = 260 -->
    <g style="fill: #262626" transform="translate(204.179232 273.542026) scale(0.029583 -0.029583)">
     <use xlink:href="#ArialMT-73"/>
     <use xlink:href="#ArialMT-61" x="50"/>
     <use xlink:href="#ArialMT-6d" x="105.615234"/>
     <use xlink:href="#ArialMT-70" x="188.916016"/>
     <use xlink:href="#ArialMT-6c" x="244.53125"/>
     <use xlink:href="#ArialMT-65" x="266.748047"/>
     <use xlink:href="#ArialMT-73" x="322.363281"/>
     <use xlink:href="#ArialMT-20" x="372.363281"/>
     <use xlink:href="#ArialMT-3d" x="400.146484"/>
     <use xlink:href="#ArialMT-20" x="458.544922"/>
     <use xlink:href="#ArialMT-32" x="486.328125"/>
     <use xlink:href="#ArialMT-36" x="541.943359"/>
     <use xlink:href="#ArialMT-30" x="597.558594"/>
    </g>
    <!-- value = [213, 47] -->
    <g style="fill: #262626" transform="translate(202.862117 276.68147) scale(0.029583 -0.029583)">
     <use xlink:href="#ArialMT-76"/>
     <use xlink:href="#ArialMT-61" x="50"/>
     <use xlink:href="#ArialMT-6c" x="105.615234"/>
     <use xlink:href="#ArialMT-75" x="127.832031"/>
     <use xlink:href="#ArialMT-65" x="183.447266"/>
     <use xlink:href="#ArialMT-20" x="239.0625"/>
     <use xlink:href="#ArialMT-3d" x="266.845703"/>
     <use xlink:href="#ArialMT-20" x="325.244141"/>
     <use xlink:href="#ArialMT-5b" x="353.027344"/>
     <use xlink:href="#ArialMT-32" x="380.810547"/>
     <use xlink:href="#ArialMT-31" x="436.425781"/>
     <use xlink:href="#ArialMT-33" x="492.041016"/>
     <use xlink:href="#ArialMT-2c" x="547.65625"/>
     <use xlink:href="#ArialMT-20" x="575.439453"/>
     <use xlink:href="#ArialMT-34" x="603.222656"/>
     <use xlink:href="#ArialMT-37" x="658.837891"/>
     <use xlink:href="#ArialMT-5d" x="714.453125"/>
    </g>
    <!-- class = No -->
    <g style="fill: #262626" transform="translate(206.893658 279.810374) scale(0.029583 -0.029583)">
     <use xlink:href="#ArialMT-63"/>
     <use xlink:href="#ArialMT-6c" x="50"/>
     <use xlink:href="#ArialMT-61" x="72.216797"/>
     <use xlink:href="#ArialMT-73" x="127.832031"/>
     <use xlink:href="#ArialMT-73" x="177.832031"/>
     <use xlink:href="#ArialMT-20" x="227.832031"/>
     <use xlink:href="#ArialMT-3d" x="255.615234"/>
     <use xlink:href="#ArialMT-20" x="314.013672"/>
     <use xlink:href="#ArialMT-4e" x="341.796875"/>
     <use xlink:href="#ArialMT-6f" x="414.013672"/>
    </g>
   </g>
   <g id="patch_10">
    <path d="M 261.988795 263.861528 
Q 270.898974 237.303444 280.164771 209.685391 
" style="fill: none; stroke: #262626; stroke-linecap: round"/>
    <path d="M 262.926095 262.92787 
L 261.988795 263.861528 
L 261.804249 262.551493 
" style="fill: none; stroke: #262626; stroke-linecap: round"/>
   </g>
   <g id="text_5">
    <g id="patch_11">
     <path d="M 246.679585 281.285802 
L 270.280415 281.285802 
Q 271.16789 281.285802 271.16789 280.398327 
L 271.16789 268.207006 
Q 271.16789 267.319531 270.280415 267.319531 
L 246.679585 267.319531 
Q 245.79211 267.319531 245.79211 268.207006 
L 245.79211 280.398327 
Q 245.79211 281.285802 246.679585 281.285802 
z
" style="fill: #eca26d; stroke: #ffffff; stroke-linejoin: miter"/>
    </g>
    <!-- gini = 0.33 -->
    <g style="fill: #262626" transform="translate(251.613392 270.367916) scale(0.029583 -0.029583)">
     <use xlink:href="#ArialMT-67"/>
     <use xlink:href="#ArialMT-69" x="55.615234"/>
     <use xlink:href="#ArialMT-6e" x="77.832031"/>
     <use xlink:href="#ArialMT-69" x="133.447266"/>
     <use xlink:href="#ArialMT-20" x="155.664062"/>
     <use xlink:href="#ArialMT-3d" x="183.447266"/>
     <use xlink:href="#ArialMT-20" x="241.845703"/>
     <use xlink:href="#ArialMT-30" x="269.628906"/>
     <use xlink:href="#ArialMT-2e" x="325.244141"/>
     <use xlink:href="#ArialMT-33" x="353.027344"/>
     <use xlink:href="#ArialMT-33" x="408.642578"/>
    </g>
    <!-- samples = 586 -->
    <g style="fill: #262626" transform="translate(248.819232 273.542026) scale(0.029583 -0.029583)">
     <use xlink:href="#ArialMT-73"/>
     <use xlink:href="#ArialMT-61" x="50"/>
     <use xlink:href="#ArialMT-6d" x="105.615234"/>
     <use xlink:href="#ArialMT-70" x="188.916016"/>
     <use xlink:href="#ArialMT-6c" x="244.53125"/>
     <use xlink:href="#ArialMT-65" x="266.748047"/>
     <use xlink:href="#ArialMT-73" x="322.363281"/>
     <use xlink:href="#ArialMT-20" x="372.363281"/>
     <use xlink:href="#ArialMT-3d" x="400.146484"/>
     <use xlink:href="#ArialMT-20" x="458.544922"/>
     <use xlink:href="#ArialMT-35" x="486.328125"/>
     <use xlink:href="#ArialMT-38" x="541.943359"/>
     <use xlink:href="#ArialMT-36" x="597.558594"/>
    </g>
    <!-- value = [464, 122] -->
    <g style="fill: #262626" transform="translate(246.679585 276.68147) scale(0.029583 -0.029583)">
     <use xlink:href="#ArialMT-76"/>
     <use xlink:href="#ArialMT-61" x="50"/>
     <use xlink:href="#ArialMT-6c" x="105.615234"/>
     <use xlink:href="#ArialMT-75" x="127.832031"/>
     <use xlink:href="#ArialMT-65" x="183.447266"/>
     <use xlink:href="#ArialMT-20" x="239.0625"/>
     <use xlink:href="#ArialMT-3d" x="266.845703"/>
     <use xlink:href="#ArialMT-20" x="325.244141"/>
     <use xlink:href="#ArialMT-5b" x="353.027344"/>
     <use xlink:href="#ArialMT-34" x="380.810547"/>
     <use xlink:href="#ArialMT-36" x="436.425781"/>
     <use xlink:href="#ArialMT-34" x="492.041016"/>
     <use xlink:href="#ArialMT-2c" x="547.65625"/>
     <use xlink:href="#ArialMT-20" x="575.439453"/>
     <use xlink:href="#ArialMT-31" x="603.222656"/>
     <use xlink:href="#ArialMT-32" x="658.837891"/>
     <use xlink:href="#ArialMT-32" x="714.453125"/>
     <use xlink:href="#ArialMT-5d" x="770.068359"/>
    </g>
    <!-- class = No -->
    <g style="fill: #262626" transform="translate(251.533658 279.810374) scale(0.029583 -0.029583)">
     <use xlink:href="#ArialMT-63"/>
     <use xlink:href="#ArialMT-6c" x="50"/>
     <use xlink:href="#ArialMT-61" x="72.216797"/>
     <use xlink:href="#ArialMT-73" x="127.832031"/>
     <use xlink:href="#ArialMT-73" x="177.832031"/>
     <use xlink:href="#ArialMT-20" x="227.832031"/>
     <use xlink:href="#ArialMT-3d" x="255.615234"/>
     <use xlink:href="#ArialMT-20" x="314.013672"/>
     <use xlink:href="#ArialMT-4e" x="341.796875"/>
     <use xlink:href="#ArialMT-6f" x="414.013672"/>
    </g>
   </g>
   <g id="patch_12">
    <path d="M 299.611205 263.861528 
Q 290.701026 237.303444 281.435229 209.685391 
" style="fill: none; stroke: #262626; stroke-linecap: round"/>
    <path d="M 299.795751 262.551493 
L 299.611205 263.861528 
L 298.673905 262.92787 
" style="fill: none; stroke: #262626; stroke-linecap: round"/>
   </g>
   <g id="text_6">
    <g id="patch_13">
     <path d="M 291.319585 281.285802 
L 314.920415 281.285802 
Q 315.80789 281.285802 315.80789 280.398327 
L 315.80789 268.207006 
Q 315.80789 267.319531 314.920415 267.319531 
L 291.319585 267.319531 
Q 290.43211 267.319531 290.43211 268.207006 
L 290.43211 280.398327 
Q 290.43211 281.285802 291.319585 281.285802 
z
" style="fill: #f5d1b6; stroke: #ffffff; stroke-linejoin: miter"/>
    </g>
    <!-- gini = 0.474 -->
    <g style="fill: #262626" transform="translate(295.43086 270.367916) scale(0.029583 -0.029583)">
     <use xlink:href="#ArialMT-67"/>
     <use xlink:href="#ArialMT-69" x="55.615234"/>
     <use xlink:href="#ArialMT-6e" x="77.832031"/>
     <use xlink:href="#ArialMT-69" x="133.447266"/>
     <use xlink:href="#ArialMT-20" x="155.664062"/>
     <use xlink:href="#ArialMT-3d" x="183.447266"/>
     <use xlink:href="#ArialMT-20" x="241.845703"/>
     <use xlink:href="#ArialMT-30" x="269.628906"/>
     <use xlink:href="#ArialMT-2e" x="325.244141"/>
     <use xlink:href="#ArialMT-34" x="353.027344"/>
     <use xlink:href="#ArialMT-37" x="408.642578"/>
     <use xlink:href="#ArialMT-34" x="464.257812"/>
    </g>
    <!-- samples = 553 -->
    <g style="fill: #262626" transform="translate(293.459232 273.542026) scale(0.029583 -0.029583)">
     <use xlink:href="#ArialMT-73"/>
     <use xlink:href="#ArialMT-61" x="50"/>
     <use xlink:href="#ArialMT-6d" x="105.615234"/>
     <use xlink:href="#ArialMT-70" x="188.916016"/>
     <use xlink:href="#ArialMT-6c" x="244.53125"/>
     <use xlink:href="#ArialMT-65" x="266.748047"/>
     <use xlink:href="#ArialMT-73" x="322.363281"/>
     <use xlink:href="#ArialMT-20" x="372.363281"/>
     <use xlink:href="#ArialMT-3d" x="400.146484"/>
     <use xlink:href="#ArialMT-20" x="458.544922"/>
     <use xlink:href="#ArialMT-35" x="486.328125"/>
     <use xlink:href="#ArialMT-35" x="541.943359"/>
     <use xlink:href="#ArialMT-33" x="597.558594"/>
    </g>
    <!-- value = [339, 214] -->
    <g style="fill: #262626" transform="translate(291.319585 276.68147) scale(0.029583 -0.029583)">
     <use xlink:href="#ArialMT-76"/>
     <use xlink:href="#ArialMT-61" x="50"/>
     <use xlink:href="#ArialMT-6c" x="105.615234"/>
     <use xlink:href="#ArialMT-75" x="127.832031"/>
     <use xlink:href="#ArialMT-65" x="183.447266"/>
     <use xlink:href="#ArialMT-20" x="239.0625"/>
     <use xlink:href="#ArialMT-3d" x="266.845703"/>
     <use xlink:href="#ArialMT-20" x="325.244141"/>
     <use xlink:href="#ArialMT-5b" x="353.027344"/>
     <use xlink:href="#ArialMT-33" x="380.810547"/>
     <use xlink:href="#ArialMT-33" x="436.425781"/>
     <use xlink:href="#ArialMT-39" x="492.041016"/>
     <use xlink:href="#ArialMT-2c" x="547.65625"/>
     <use xlink:href="#ArialMT-20" x="575.439453"/>
     <use xlink:href="#ArialMT-32" x="603.222656"/>
     <use xlink:href="#ArialMT-31" x="658.837891"/>
     <use xlink:href="#ArialMT-34" x="714.453125"/>
     <use xlink:href="#ArialMT-5d" x="770.068359"/>
    </g>
    <!-- class = No -->
    <g style="fill: #262626" transform="translate(296.173658 279.810374) scale(0.029583 -0.029583)">
     <use xlink:href="#ArialMT-63"/>
     <use xlink:href="#ArialMT-6c" x="50"/>
     <use xlink:href="#ArialMT-61" x="72.216797"/>
     <use xlink:href="#ArialMT-73" x="127.832031"/>
     <use xlink:href="#ArialMT-73" x="177.832031"/>
     <use xlink:href="#ArialMT-20" x="227.832031"/>
     <use xlink:href="#ArialMT-3d" x="255.615234"/>
     <use xlink:href="#ArialMT-20" x="314.013672"/>
     <use xlink:href="#ArialMT-4e" x="341.796875"/>
     <use xlink:href="#ArialMT-6f" x="414.013672"/>
    </g>
   </g>
   <g id="patch_14">
    <path d="M 351.268795 263.861528 
Q 360.178974 237.303444 369.444771 209.685391 
" style="fill: none; stroke: #262626; stroke-linecap: round"/>
    <path d="M 352.206095 262.92787 
L 351.268795 263.861528 
L 351.084249 262.551493 
" style="fill: none; stroke: #262626; stroke-linecap: round"/>
   </g>
   <g id="text_7">
    <g id="patch_15">
     <path d="M 335.959585 281.285802 
L 359.560415 281.285802 
Q 360.44789 281.285802 360.44789 280.398327 
L 360.44789 268.207006 
Q 360.44789 267.319531 359.560415 267.319531 
L 335.959585 267.319531 
Q 335.07211 267.319531 335.07211 268.207006 
L 335.07211 280.398327 
Q 335.07211 281.285802 335.959585 281.285802 
z
" style="fill: #97ccf1; stroke: #ffffff; stroke-linejoin: miter"/>
    </g>
    <!-- gini = 0.437 -->
    <g style="fill: #262626" transform="translate(340.07086 270.367916) scale(0.029583 -0.029583)">
     <use xlink:href="#ArialMT-67"/>
     <use xlink:href="#ArialMT-69" x="55.615234"/>
     <use xlink:href="#ArialMT-6e" x="77.832031"/>
     <use xlink:href="#ArialMT-69" x="133.447266"/>
     <use xlink:href="#ArialMT-20" x="155.664062"/>
     <use xlink:href="#ArialMT-3d" x="183.447266"/>
     <use xlink:href="#ArialMT-20" x="241.845703"/>
     <use xlink:href="#ArialMT-30" x="269.628906"/>
     <use xlink:href="#ArialMT-2e" x="325.244141"/>
     <use xlink:href="#ArialMT-34" x="353.027344"/>
     <use xlink:href="#ArialMT-33" x="408.642578"/>
     <use xlink:href="#ArialMT-37" x="464.257812"/>
    </g>
    <!-- samples = 761 -->
    <g style="fill: #262626" transform="translate(338.099232 273.542026) scale(0.029583 -0.029583)">
     <use xlink:href="#ArialMT-73"/>
     <use xlink:href="#ArialMT-61" x="50"/>
     <use xlink:href="#ArialMT-6d" x="105.615234"/>
     <use xlink:href="#ArialMT-70" x="188.916016"/>
     <use xlink:href="#ArialMT-6c" x="244.53125"/>
     <use xlink:href="#ArialMT-65" x="266.748047"/>
     <use xlink:href="#ArialMT-73" x="322.363281"/>
     <use xlink:href="#ArialMT-20" x="372.363281"/>
     <use xlink:href="#ArialMT-3d" x="400.146484"/>
     <use xlink:href="#ArialMT-20" x="458.544922"/>
     <use xlink:href="#ArialMT-37" x="486.328125"/>
     <use xlink:href="#ArialMT-36" x="541.943359"/>
     <use xlink:href="#ArialMT-31" x="597.558594"/>
    </g>
    <!-- value = [245, 516] -->
    <g style="fill: #262626" transform="translate(335.959585 276.68147) scale(0.029583 -0.029583)">
     <use xlink:href="#ArialMT-76"/>
     <use xlink:href="#ArialMT-61" x="50"/>
     <use xlink:href="#ArialMT-6c" x="105.615234"/>
     <use xlink:href="#ArialMT-75" x="127.832031"/>
     <use xlink:href="#ArialMT-65" x="183.447266"/>
     <use xlink:href="#ArialMT-20" x="239.0625"/>
     <use xlink:href="#ArialMT-3d" x="266.845703"/>
     <use xlink:href="#ArialMT-20" x="325.244141"/>
     <use xlink:href="#ArialMT-5b" x="353.027344"/>
     <use xlink:href="#ArialMT-32" x="380.810547"/>
     <use xlink:href="#ArialMT-34" x="436.425781"/>
     <use xlink:href="#ArialMT-35" x="492.041016"/>
     <use xlink:href="#ArialMT-2c" x="547.65625"/>
     <use xlink:href="#ArialMT-20" x="575.439453"/>
     <use xlink:href="#ArialMT-35" x="603.222656"/>
     <use xlink:href="#ArialMT-31" x="658.837891"/>
     <use xlink:href="#ArialMT-36" x="714.453125"/>
     <use xlink:href="#ArialMT-5d" x="770.068359"/>
    </g>
    <!-- class = Yes -->
    <g style="fill: #262626" transform="translate(340.316533 279.810374) scale(0.029583 -0.029583)">
     <defs>
      <path id="ArialMT-59" d="M 1784 0 
L 1784 1941 
L 19 4581 
L 756 4581 
L 1659 3200 
Q 1909 2813 2125 2425 
Q 2331 2784 2625 3234 
L 3513 4581 
L 4219 4581 
L 2391 1941 
L 2391 0 
L 1784 0 
z
" transform="scale(0.015625)"/>
     </defs>
     <use xlink:href="#ArialMT-63"/>
     <use xlink:href="#ArialMT-6c" x="50"/>
     <use xlink:href="#ArialMT-61" x="72.216797"/>
     <use xlink:href="#ArialMT-73" x="127.832031"/>
     <use xlink:href="#ArialMT-73" x="177.832031"/>
     <use xlink:href="#ArialMT-20" x="227.832031"/>
     <use xlink:href="#ArialMT-3d" x="255.615234"/>
     <use xlink:href="#ArialMT-20" x="314.013672"/>
     <use xlink:href="#ArialMT-59" x="340.046875"/>
     <use xlink:href="#ArialMT-65" x="397.621094"/>
     <use xlink:href="#ArialMT-73" x="453.236328"/>
    </g>
   </g>
   <g id="patch_16">
    <path d="M 388.891205 263.861528 
Q 379.981026 237.303444 370.715229 209.685391 
" style="fill: none; stroke: #262626; stroke-linecap: round"/>
    <path d="M 389.075751 262.551493 
L 388.891205 263.861528 
L 387.953905 262.92787 
" style="fill: none; stroke: #262626; stroke-linecap: round"/>
   </g>
   <g id="text_8">
    <g id="patch_17">
     <path d="M 380.599585 281.285802 
L 404.200415 281.285802 
Q 405.08789 281.285802 405.08789 280.398327 
L 405.08789 268.207006 
Q 405.08789 267.319531 404.200415 267.319531 
L 380.599585 267.319531 
Q 379.71211 267.319531 379.71211 268.207006 
L 379.71211 280.398327 
Q 379.71211 281.285802 380.599585 281.285802 
z
" style="fill: #f7dac6; stroke: #ffffff; stroke-linejoin: miter"/>
    </g>
    <!-- gini = 0.486 -->
    <g style="fill: #262626" transform="translate(384.71086 270.367916) scale(0.029583 -0.029583)">
     <use xlink:href="#ArialMT-67"/>
     <use xlink:href="#ArialMT-69" x="55.615234"/>
     <use xlink:href="#ArialMT-6e" x="77.832031"/>
     <use xlink:href="#ArialMT-69" x="133.447266"/>
     <use xlink:href="#ArialMT-20" x="155.664062"/>
     <use xlink:href="#ArialMT-3d" x="183.447266"/>
     <use xlink:href="#ArialMT-20" x="241.845703"/>
     <use xlink:href="#ArialMT-30" x="269.628906"/>
     <use xlink:href="#ArialMT-2e" x="325.244141"/>
     <use xlink:href="#ArialMT-34" x="353.027344"/>
     <use xlink:href="#ArialMT-38" x="408.642578"/>
     <use xlink:href="#ArialMT-36" x="464.257812"/>
    </g>
    <!-- samples = 836 -->
    <g style="fill: #262626" transform="translate(382.739232 273.542026) scale(0.029583 -0.029583)">
     <use xlink:href="#ArialMT-73"/>
     <use xlink:href="#ArialMT-61" x="50"/>
     <use xlink:href="#ArialMT-6d" x="105.615234"/>
     <use xlink:href="#ArialMT-70" x="188.916016"/>
     <use xlink:href="#ArialMT-6c" x="244.53125"/>
     <use xlink:href="#ArialMT-65" x="266.748047"/>
     <use xlink:href="#ArialMT-73" x="322.363281"/>
     <use xlink:href="#ArialMT-20" x="372.363281"/>
     <use xlink:href="#ArialMT-3d" x="400.146484"/>
     <use xlink:href="#ArialMT-20" x="458.544922"/>
     <use xlink:href="#ArialMT-38" x="486.328125"/>
     <use xlink:href="#ArialMT-33" x="541.943359"/>
     <use xlink:href="#ArialMT-36" x="597.558594"/>
    </g>
    <!-- value = [489, 347] -->
    <g style="fill: #262626" transform="translate(380.599585 276.68147) scale(0.029583 -0.029583)">
     <use xlink:href="#ArialMT-76"/>
     <use xlink:href="#ArialMT-61" x="50"/>
     <use xlink:href="#ArialMT-6c" x="105.615234"/>
     <use xlink:href="#ArialMT-75" x="127.832031"/>
     <use xlink:href="#ArialMT-65" x="183.447266"/>
     <use xlink:href="#ArialMT-20" x="239.0625"/>
     <use xlink:href="#ArialMT-3d" x="266.845703"/>
     <use xlink:href="#ArialMT-20" x="325.244141"/>
     <use xlink:href="#ArialMT-5b" x="353.027344"/>
     <use xlink:href="#ArialMT-34" x="380.810547"/>
     <use xlink:href="#ArialMT-38" x="436.425781"/>
     <use xlink:href="#ArialMT-39" x="492.041016"/>
     <use xlink:href="#ArialMT-2c" x="547.65625"/>
     <use xlink:href="#ArialMT-20" x="575.439453"/>
     <use xlink:href="#ArialMT-33" x="603.222656"/>
     <use xlink:href="#ArialMT-34" x="658.837891"/>
     <use xlink:href="#ArialMT-37" x="714.453125"/>
     <use xlink:href="#ArialMT-5d" x="770.068359"/>
    </g>
    <!-- class = No -->
    <g style="fill: #262626" transform="translate(385.453658 279.810374) scale(0.029583 -0.029583)">
     <use xlink:href="#ArialMT-63"/>
     <use xlink:href="#ArialMT-6c" x="50"/>
     <use xlink:href="#ArialMT-61" x="72.216797"/>
     <use xlink:href="#ArialMT-73" x="127.832031"/>
     <use xlink:href="#ArialMT-73" x="177.832031"/>
     <use xlink:href="#ArialMT-20" x="227.832031"/>
     <use xlink:href="#ArialMT-3d" x="255.615234"/>
     <use xlink:href="#ArialMT-20" x="314.013672"/>
     <use xlink:href="#ArialMT-4e" x="341.796875"/>
     <use xlink:href="#ArialMT-6f" x="414.013672"/>
    </g>
   </g>
   <g id="patch_18">
    <path d="M 110.08127 196.105979 
Q 127.612995 169.978053 145.767673 142.921726 
" style="fill: none; stroke: #262626; stroke-linecap: round"/>
    <path d="M 111.231887 195.453041 
L 110.08127 196.105979 
L 110.249289 194.793722 
" style="fill: none; stroke: #262626; stroke-linecap: round"/>
   </g>
   <g id="text_9">
    <g id="patch_19">
     <path d="M 88.097945 216.358493 
L 116.382055 216.358493 
Q 117.26953 216.358493 117.26953 215.471017 
L 117.26953 200.078316 
Q 117.26953 199.19084 116.382055 199.19084 
L 88.097945 199.19084 
Q 87.21047 199.19084 87.21047 200.078316 
L 87.21047 215.471017 
Q 87.21047 216.358493 88.097945 216.358493 
z
" style="fill: #e68641; stroke: #ffffff; stroke-linejoin: miter"/>
    </g>
    <!-- TotalCharges &lt;= 0.32 -->
    <g style="fill: #262626" transform="translate(88.097945 202.266497) scale(0.029583 -0.029583)">
     <defs>
      <path id="ArialMT-54" d="M 1659 0 
L 1659 4041 
L 150 4041 
L 150 4581 
L 3781 4581 
L 3781 4041 
L 2266 4041 
L 2266 0 
L 1659 0 
z
" transform="scale(0.015625)"/>
      <path id="ArialMT-74" d="M 1650 503 
L 1731 6 
Q 1494 -44 1306 -44 
Q 1000 -44 831 53 
Q 663 150 594 308 
Q 525 466 525 972 
L 525 2881 
L 113 2881 
L 113 3319 
L 525 3319 
L 525 4141 
L 1084 4478 
L 1084 3319 
L 1650 3319 
L 1650 2881 
L 1084 2881 
L 1084 941 
Q 1084 700 1114 631 
Q 1144 563 1211 522 
Q 1278 481 1403 481 
Q 1497 481 1650 503 
z
" transform="scale(0.015625)"/>
      <path id="ArialMT-43" d="M 3763 1606 
L 4369 1453 
Q 4178 706 3683 314 
Q 3188 -78 2472 -78 
Q 1731 -78 1267 223 
Q 803 525 561 1097 
Q 319 1669 319 2325 
Q 319 3041 592 3573 
Q 866 4106 1370 4382 
Q 1875 4659 2481 4659 
Q 3169 4659 3637 4309 
Q 4106 3959 4291 3325 
L 3694 3184 
Q 3534 3684 3231 3912 
Q 2928 4141 2469 4141 
Q 1941 4141 1586 3887 
Q 1231 3634 1087 3207 
Q 944 2781 944 2328 
Q 944 1744 1114 1308 
Q 1284 872 1643 656 
Q 2003 441 2422 441 
Q 2931 441 3284 734 
Q 3638 1028 3763 1606 
z
" transform="scale(0.015625)"/>
      <path id="ArialMT-68" d="M 422 0 
L 422 4581 
L 984 4581 
L 984 2938 
Q 1378 3394 1978 3394 
Q 2347 3394 2619 3248 
Q 2891 3103 3008 2847 
Q 3125 2591 3125 2103 
L 3125 0 
L 2563 0 
L 2563 2103 
Q 2563 2525 2380 2717 
Q 2197 2909 1863 2909 
Q 1613 2909 1392 2779 
Q 1172 2650 1078 2428 
Q 984 2206 984 1816 
L 984 0 
L 422 0 
z
" transform="scale(0.015625)"/>
      <path id="ArialMT-72" d="M 416 0 
L 416 3319 
L 922 3319 
L 922 2816 
Q 1116 3169 1280 3281 
Q 1444 3394 1641 3394 
Q 1925 3394 2219 3213 
L 2025 2691 
Q 1819 2813 1613 2813 
Q 1428 2813 1281 2702 
Q 1134 2591 1072 2394 
Q 978 2094 978 1738 
L 978 0 
L 416 0 
z
" transform="scale(0.015625)"/>
      <path id="ArialMT-3c" d="M 350 2003 
L 350 2528 
L 3384 3809 
L 3384 3250 
L 978 2263 
L 3384 1266 
L 3384 706 
L 350 2003 
z
" transform="scale(0.015625)"/>
     </defs>
     <use xlink:href="#ArialMT-54"/>
     <use xlink:href="#ArialMT-6f" x="49.958984"/>
     <use xlink:href="#ArialMT-74" x="105.574219"/>
     <use xlink:href="#ArialMT-61" x="133.357422"/>
     <use xlink:href="#ArialMT-6c" x="188.972656"/>
     <use xlink:href="#ArialMT-43" x="211.189453"/>
     <use xlink:href="#ArialMT-68" x="283.40625"/>
     <use xlink:href="#ArialMT-61" x="339.021484"/>
     <use xlink:href="#ArialMT-72" x="394.636719"/>
     <use xlink:href="#ArialMT-67" x="427.9375"/>
     <use xlink:href="#ArialMT-65" x="483.552734"/>
     <use xlink:href="#ArialMT-73" x="539.167969"/>
     <use xlink:href="#ArialMT-20" x="589.167969"/>
     <use xlink:href="#ArialMT-3c" x="616.951172"/>
     <use xlink:href="#ArialMT-3d" x="675.349609"/>
     <use xlink:href="#ArialMT-20" x="733.748047"/>
     <use xlink:href="#ArialMT-30" x="761.53125"/>
     <use xlink:href="#ArialMT-2e" x="817.146484"/>
     <use xlink:href="#ArialMT-33" x="844.929688"/>
     <use xlink:href="#ArialMT-32" x="900.544922"/>
    </g>
    <!-- gini = 0.071 -->
    <g style="fill: #262626" transform="translate(94.55086 205.440607) scale(0.029583 -0.029583)">
     <use xlink:href="#ArialMT-67"/>
     <use xlink:href="#ArialMT-69" x="55.615234"/>
     <use xlink:href="#ArialMT-6e" x="77.832031"/>
     <use xlink:href="#ArialMT-69" x="133.447266"/>
     <use xlink:href="#ArialMT-20" x="155.664062"/>
     <use xlink:href="#ArialMT-3d" x="183.447266"/>
     <use xlink:href="#ArialMT-20" x="241.845703"/>
     <use xlink:href="#ArialMT-30" x="269.628906"/>
     <use xlink:href="#ArialMT-2e" x="325.244141"/>
     <use xlink:href="#ArialMT-30" x="353.027344"/>
     <use xlink:href="#ArialMT-37" x="408.642578"/>
     <use xlink:href="#ArialMT-31" x="464.257812"/>
    </g>
    <!-- samples = 1579 -->
    <g style="fill: #262626" transform="translate(91.7567 208.614717) scale(0.029583 -0.029583)">
     <use xlink:href="#ArialMT-73"/>
     <use xlink:href="#ArialMT-61" x="50"/>
     <use xlink:href="#ArialMT-6d" x="105.615234"/>
     <use xlink:href="#ArialMT-70" x="188.916016"/>
     <use xlink:href="#ArialMT-6c" x="244.53125"/>
     <use xlink:href="#ArialMT-65" x="266.748047"/>
     <use xlink:href="#ArialMT-73" x="322.363281"/>
     <use xlink:href="#ArialMT-20" x="372.363281"/>
     <use xlink:href="#ArialMT-3d" x="400.146484"/>
     <use xlink:href="#ArialMT-20" x="458.544922"/>
     <use xlink:href="#ArialMT-31" x="486.328125"/>
     <use xlink:href="#ArialMT-35" x="541.943359"/>
     <use xlink:href="#ArialMT-37" x="597.558594"/>
     <use xlink:href="#ArialMT-39" x="653.173828"/>
    </g>
    <!-- value = [1521, 58] -->
    <g style="fill: #262626" transform="translate(90.439585 211.754161) scale(0.029583 -0.029583)">
     <use xlink:href="#ArialMT-76"/>
     <use xlink:href="#ArialMT-61" x="50"/>
     <use xlink:href="#ArialMT-6c" x="105.615234"/>
     <use xlink:href="#ArialMT-75" x="127.832031"/>
     <use xlink:href="#ArialMT-65" x="183.447266"/>
     <use xlink:href="#ArialMT-20" x="239.0625"/>
     <use xlink:href="#ArialMT-3d" x="266.845703"/>
     <use xlink:href="#ArialMT-20" x="325.244141"/>
     <use xlink:href="#ArialMT-5b" x="353.027344"/>
     <use xlink:href="#ArialMT-31" x="380.810547"/>
     <use xlink:href="#ArialMT-35" x="436.425781"/>
     <use xlink:href="#ArialMT-32" x="492.041016"/>
     <use xlink:href="#ArialMT-31" x="547.65625"/>
     <use xlink:href="#ArialMT-2c" x="603.271484"/>
     <use xlink:href="#ArialMT-20" x="631.054688"/>
     <use xlink:href="#ArialMT-35" x="658.837891"/>
     <use xlink:href="#ArialMT-38" x="714.453125"/>
     <use xlink:href="#ArialMT-5d" x="770.068359"/>
    </g>
    <!-- class = No -->
    <g style="fill: #262626" transform="translate(95.293658 214.883065) scale(0.029583 -0.029583)">
     <use xlink:href="#ArialMT-63"/>
     <use xlink:href="#ArialMT-6c" x="50"/>
     <use xlink:href="#ArialMT-61" x="72.216797"/>
     <use xlink:href="#ArialMT-73" x="127.832031"/>
     <use xlink:href="#ArialMT-73" x="177.832031"/>
     <use xlink:href="#ArialMT-20" x="227.832031"/>
     <use xlink:href="#ArialMT-3d" x="255.615234"/>
     <use xlink:href="#ArialMT-20" x="314.013672"/>
     <use xlink:href="#ArialMT-4e" x="341.796875"/>
     <use xlink:href="#ArialMT-6f" x="414.013672"/>
    </g>
   </g>
   <g id="patch_20">
    <path d="M 183.67873 196.105979 
Q 166.147005 169.978053 147.992327 142.921726 
" style="fill: none; stroke: #262626; stroke-linecap: round"/>
    <path d="M 183.510711 194.793722 
L 183.67873 196.105979 
L 182.528113 195.453041 
" style="fill: none; stroke: #262626; stroke-linecap: round"/>
   </g>
   <g id="text_10">
    <g id="patch_21">
     <path d="M 174.500122 216.358493 
L 208.539878 216.358493 
Q 209.427353 216.358493 209.427353 215.471017 
L 209.427353 200.078316 
Q 209.427353 199.19084 208.539878 199.19084 
L 174.500122 199.19084 
Q 173.612647 199.19084 173.612647 200.078316 
L 173.612647 215.471017 
Q 173.612647 216.358493 174.500122 216.358493 
z
" style="fill: #e99558; stroke: #ffffff; stroke-linejoin: miter"/>
    </g>
    <!-- MonthlyCharges &lt;= 0.749 -->
    <g style="fill: #262626" transform="translate(174.500122 202.266497) scale(0.029583 -0.029583)">
     <defs>
      <path id="ArialMT-4d" d="M 475 0 
L 475 4581 
L 1388 4581 
L 2472 1338 
Q 2622 884 2691 659 
Q 2769 909 2934 1394 
L 4031 4581 
L 4847 4581 
L 4847 0 
L 4263 0 
L 4263 3834 
L 2931 0 
L 2384 0 
L 1059 3900 
L 1059 0 
L 475 0 
z
" transform="scale(0.015625)"/>
      <path id="ArialMT-79" d="M 397 -1278 
L 334 -750 
Q 519 -800 656 -800 
Q 844 -800 956 -737 
Q 1069 -675 1141 -563 
Q 1194 -478 1313 -144 
Q 1328 -97 1363 -6 
L 103 3319 
L 709 3319 
L 1400 1397 
Q 1534 1031 1641 628 
Q 1738 1016 1872 1384 
L 2581 3319 
L 3144 3319 
L 1881 -56 
Q 1678 -603 1566 -809 
Q 1416 -1088 1222 -1217 
Q 1028 -1347 759 -1347 
Q 597 -1347 397 -1278 
z
" transform="scale(0.015625)"/>
     </defs>
     <use xlink:href="#ArialMT-4d"/>
     <use xlink:href="#ArialMT-6f" x="83.300781"/>
     <use xlink:href="#ArialMT-6e" x="138.916016"/>
     <use xlink:href="#ArialMT-74" x="194.53125"/>
     <use xlink:href="#ArialMT-68" x="222.314453"/>
     <use xlink:href="#ArialMT-6c" x="277.929688"/>
     <use xlink:href="#ArialMT-79" x="300.146484"/>
     <use xlink:href="#ArialMT-43" x="350.146484"/>
     <use xlink:href="#ArialMT-68" x="422.363281"/>
     <use xlink:href="#ArialMT-61" x="477.978516"/>
     <use xlink:href="#ArialMT-72" x="533.59375"/>
     <use xlink:href="#ArialMT-67" x="566.894531"/>
     <use xlink:href="#ArialMT-65" x="622.509766"/>
     <use xlink:href="#ArialMT-73" x="678.125"/>
     <use xlink:href="#ArialMT-20" x="728.125"/>
     <use xlink:href="#ArialMT-3c" x="755.908203"/>
     <use xlink:href="#ArialMT-3d" x="814.306641"/>
     <use xlink:href="#ArialMT-20" x="872.705078"/>
     <use xlink:href="#ArialMT-30" x="900.488281"/>
     <use xlink:href="#ArialMT-2e" x="956.103516"/>
     <use xlink:href="#ArialMT-37" x="983.886719"/>
     <use xlink:href="#ArialMT-34" x="1039.501953"/>
     <use xlink:href="#ArialMT-39" x="1095.117188"/>
    </g>
    <!-- gini = 0.234 -->
    <g style="fill: #262626" transform="translate(183.83086 205.440607) scale(0.029583 -0.029583)">
     <use xlink:href="#ArialMT-67"/>
     <use xlink:href="#ArialMT-69" x="55.615234"/>
     <use xlink:href="#ArialMT-6e" x="77.832031"/>
     <use xlink:href="#ArialMT-69" x="133.447266"/>
     <use xlink:href="#ArialMT-20" x="155.664062"/>
     <use xlink:href="#ArialMT-3d" x="183.447266"/>
     <use xlink:href="#ArialMT-20" x="241.845703"/>
     <use xlink:href="#ArialMT-30" x="269.628906"/>
     <use xlink:href="#ArialMT-2e" x="325.244141"/>
     <use xlink:href="#ArialMT-32" x="353.027344"/>
     <use xlink:href="#ArialMT-33" x="408.642578"/>
     <use xlink:href="#ArialMT-34" x="464.257812"/>
    </g>
    <!-- samples = 607 -->
    <g style="fill: #262626" transform="translate(181.859232 208.614717) scale(0.029583 -0.029583)">
     <use xlink:href="#ArialMT-73"/>
     <use xlink:href="#ArialMT-61" x="50"/>
     <use xlink:href="#ArialMT-6d" x="105.615234"/>
     <use xlink:href="#ArialMT-70" x="188.916016"/>
     <use xlink:href="#ArialMT-6c" x="244.53125"/>
     <use xlink:href="#ArialMT-65" x="266.748047"/>
     <use xlink:href="#ArialMT-73" x="322.363281"/>
     <use xlink:href="#ArialMT-20" x="372.363281"/>
     <use xlink:href="#ArialMT-3d" x="400.146484"/>
     <use xlink:href="#ArialMT-20" x="458.544922"/>
     <use xlink:href="#ArialMT-36" x="486.328125"/>
     <use xlink:href="#ArialMT-30" x="541.943359"/>
     <use xlink:href="#ArialMT-37" x="597.558594"/>
    </g>
    <!-- value = [525, 82] -->
    <g style="fill: #262626" transform="translate(180.542117 211.754161) scale(0.029583 -0.029583)">
     <use xlink:href="#ArialMT-76"/>
     <use xlink:href="#ArialMT-61" x="50"/>
     <use xlink:href="#ArialMT-6c" x="105.615234"/>
     <use xlink:href="#ArialMT-75" x="127.832031"/>
     <use xlink:href="#ArialMT-65" x="183.447266"/>
     <use xlink:href="#ArialMT-20" x="239.0625"/>
     <use xlink:href="#ArialMT-3d" x="266.845703"/>
     <use xlink:href="#ArialMT-20" x="325.244141"/>
     <use xlink:href="#ArialMT-5b" x="353.027344"/>
     <use xlink:href="#ArialMT-35" x="380.810547"/>
     <use xlink:href="#ArialMT-32" x="436.425781"/>
     <use xlink:href="#ArialMT-35" x="492.041016"/>
     <use xlink:href="#ArialMT-2c" x="547.65625"/>
     <use xlink:href="#ArialMT-20" x="575.439453"/>
     <use xlink:href="#ArialMT-38" x="603.222656"/>
     <use xlink:href="#ArialMT-32" x="658.837891"/>
     <use xlink:href="#ArialMT-5d" x="714.453125"/>
    </g>
    <!-- class = No -->
    <g style="fill: #262626" transform="translate(184.573658 214.883065) scale(0.029583 -0.029583)">
     <use xlink:href="#ArialMT-63"/>
     <use xlink:href="#ArialMT-6c" x="50"/>
     <use xlink:href="#ArialMT-61" x="72.216797"/>
     <use xlink:href="#ArialMT-73" x="127.832031"/>
     <use xlink:href="#ArialMT-73" x="177.832031"/>
     <use xlink:href="#ArialMT-20" x="227.832031"/>
     <use xlink:href="#ArialMT-3d" x="255.615234"/>
     <use xlink:href="#ArialMT-20" x="314.013672"/>
     <use xlink:href="#ArialMT-4e" x="341.796875"/>
     <use xlink:href="#ArialMT-6f" x="414.013672"/>
    </g>
   </g>
   <g id="patch_22">
    <path d="M 288.609518 196.153299 
Q 306.156647 170.002416 324.32673 142.923132 
" style="fill: none; stroke: #262626; stroke-linecap: round"/>
    <path d="M 289.760136 195.500361 
L 288.609518 196.153299 
L 288.777538 194.841042 
" style="fill: none; stroke: #262626; stroke-linecap: round"/>
   </g>
   <g id="text_11">
    <g id="patch_23">
     <path d="M 264.272393 216.342083 
L 297.327607 216.342083 
Q 298.215082 216.342083 298.215082 215.454608 
L 298.215082 200.129392 
Q 298.215082 199.241917 297.327607 199.241917 
L 264.272393 199.241917 
Q 263.384918 199.241917 263.384918 200.129392 
L 263.384918 215.454608 
Q 263.384918 216.342083 264.272393 216.342083 
z
" style="fill: #f0b68c; stroke: #ffffff; stroke-linejoin: miter"/>
    </g>
    <!-- OnlineBackup_No &lt;= 0.5 -->
    <g style="fill: #262626" transform="translate(264.272393 202.284754) scale(0.029583 -0.029583)">
     <defs>
      <path id="ArialMT-4f" d="M 309 2231 
Q 309 3372 921 4017 
Q 1534 4663 2503 4663 
Q 3138 4663 3647 4359 
Q 4156 4056 4423 3514 
Q 4691 2972 4691 2284 
Q 4691 1588 4409 1038 
Q 4128 488 3612 205 
Q 3097 -78 2500 -78 
Q 1853 -78 1343 234 
Q 834 547 571 1087 
Q 309 1628 309 2231 
z
M 934 2222 
Q 934 1394 1379 917 
Q 1825 441 2497 441 
Q 3181 441 3623 922 
Q 4066 1403 4066 2288 
Q 4066 2847 3877 3264 
Q 3688 3681 3323 3911 
Q 2959 4141 2506 4141 
Q 1863 4141 1398 3698 
Q 934 3256 934 2222 
z
" transform="scale(0.015625)"/>
      <path id="ArialMT-42" d="M 469 0 
L 469 4581 
L 2188 4581 
Q 2713 4581 3030 4442 
Q 3347 4303 3526 4014 
Q 3706 3725 3706 3409 
Q 3706 3116 3547 2856 
Q 3388 2597 3066 2438 
Q 3481 2316 3704 2022 
Q 3928 1728 3928 1328 
Q 3928 1006 3792 729 
Q 3656 453 3456 303 
Q 3256 153 2954 76 
Q 2653 0 2216 0 
L 469 0 
z
M 1075 2656 
L 2066 2656 
Q 2469 2656 2644 2709 
Q 2875 2778 2992 2937 
Q 3109 3097 3109 3338 
Q 3109 3566 3000 3739 
Q 2891 3913 2687 3977 
Q 2484 4041 1991 4041 
L 1075 4041 
L 1075 2656 
z
M 1075 541 
L 2216 541 
Q 2509 541 2628 563 
Q 2838 600 2978 687 
Q 3119 775 3209 942 
Q 3300 1109 3300 1328 
Q 3300 1584 3169 1773 
Q 3038 1963 2805 2039 
Q 2572 2116 2134 2116 
L 1075 2116 
L 1075 541 
z
" transform="scale(0.015625)"/>
      <path id="ArialMT-6b" d="M 425 0 
L 425 4581 
L 988 4581 
L 988 1969 
L 2319 3319 
L 3047 3319 
L 1778 2088 
L 3175 0 
L 2481 0 
L 1384 1697 
L 988 1316 
L 988 0 
L 425 0 
z
" transform="scale(0.015625)"/>
      <path id="ArialMT-5f" d="M -97 -1272 
L -97 -866 
L 3631 -866 
L 3631 -1272 
L -97 -1272 
z
" transform="scale(0.015625)"/>
     </defs>
     <use xlink:href="#ArialMT-4f"/>
     <use xlink:href="#ArialMT-6e" x="77.783203"/>
     <use xlink:href="#ArialMT-6c" x="133.398438"/>
     <use xlink:href="#ArialMT-69" x="155.615234"/>
     <use xlink:href="#ArialMT-6e" x="177.832031"/>
     <use xlink:href="#ArialMT-65" x="233.447266"/>
     <use xlink:href="#ArialMT-42" x="289.0625"/>
     <use xlink:href="#ArialMT-61" x="355.761719"/>
     <use xlink:href="#ArialMT-63" x="411.376953"/>
     <use xlink:href="#ArialMT-6b" x="461.376953"/>
     <use xlink:href="#ArialMT-75" x="511.376953"/>
     <use xlink:href="#ArialMT-70" x="566.992188"/>
     <use xlink:href="#ArialMT-5f" x="622.607422"/>
     <use xlink:href="#ArialMT-4e" x="678.222656"/>
     <use xlink:href="#ArialMT-6f" x="750.439453"/>
     <use xlink:href="#ArialMT-20" x="806.054688"/>
     <use xlink:href="#ArialMT-3c" x="833.837891"/>
     <use xlink:href="#ArialMT-3d" x="892.236328"/>
     <use xlink:href="#ArialMT-20" x="950.634766"/>
     <use xlink:href="#ArialMT-30" x="978.417969"/>
     <use xlink:href="#ArialMT-2e" x="1034.033203"/>
     <use xlink:href="#ArialMT-35" x="1061.816406"/>
    </g>
    <!-- gini = 0.416 -->
    <g style="fill: #262626" transform="translate(273.11086 205.424198) scale(0.029583 -0.029583)">
     <use xlink:href="#ArialMT-67"/>
     <use xlink:href="#ArialMT-69" x="55.615234"/>
     <use xlink:href="#ArialMT-6e" x="77.832031"/>
     <use xlink:href="#ArialMT-69" x="133.447266"/>
     <use xlink:href="#ArialMT-20" x="155.664062"/>
     <use xlink:href="#ArialMT-3d" x="183.447266"/>
     <use xlink:href="#ArialMT-20" x="241.845703"/>
     <use xlink:href="#ArialMT-30" x="269.628906"/>
     <use xlink:href="#ArialMT-2e" x="325.244141"/>
     <use xlink:href="#ArialMT-34" x="353.027344"/>
     <use xlink:href="#ArialMT-31" x="408.642578"/>
     <use xlink:href="#ArialMT-36" x="464.257812"/>
    </g>
    <!-- samples = 1139 -->
    <g style="fill: #262626" transform="translate(270.425785 208.598308) scale(0.029583 -0.029583)">
     <use xlink:href="#ArialMT-73"/>
     <use xlink:href="#ArialMT-61" x="50"/>
     <use xlink:href="#ArialMT-6d" x="105.615234"/>
     <use xlink:href="#ArialMT-70" x="188.916016"/>
     <use xlink:href="#ArialMT-6c" x="244.53125"/>
     <use xlink:href="#ArialMT-65" x="266.748047"/>
     <use xlink:href="#ArialMT-73" x="322.363281"/>
     <use xlink:href="#ArialMT-20" x="372.363281"/>
     <use xlink:href="#ArialMT-3d" x="400.146484"/>
     <use xlink:href="#ArialMT-20" x="458.544922"/>
     <use xlink:href="#ArialMT-31" x="486.328125"/>
     <use xlink:href="#ArialMT-31" x="534.568359"/>
     <use xlink:href="#ArialMT-33" x="590.183594"/>
     <use xlink:href="#ArialMT-39" x="645.798828"/>
    </g>
    <!-- value = [803, 336] -->
    <g style="fill: #262626" transform="translate(268.999585 211.737751) scale(0.029583 -0.029583)">
     <use xlink:href="#ArialMT-76"/>
     <use xlink:href="#ArialMT-61" x="50"/>
     <use xlink:href="#ArialMT-6c" x="105.615234"/>
     <use xlink:href="#ArialMT-75" x="127.832031"/>
     <use xlink:href="#ArialMT-65" x="183.447266"/>
     <use xlink:href="#ArialMT-20" x="239.0625"/>
     <use xlink:href="#ArialMT-3d" x="266.845703"/>
     <use xlink:href="#ArialMT-20" x="325.244141"/>
     <use xlink:href="#ArialMT-5b" x="353.027344"/>
     <use xlink:href="#ArialMT-38" x="380.810547"/>
     <use xlink:href="#ArialMT-30" x="436.425781"/>
     <use xlink:href="#ArialMT-33" x="492.041016"/>
     <use xlink:href="#ArialMT-2c" x="547.65625"/>
     <use xlink:href="#ArialMT-20" x="575.439453"/>
     <use xlink:href="#ArialMT-33" x="603.222656"/>
     <use xlink:href="#ArialMT-33" x="658.837891"/>
     <use xlink:href="#ArialMT-36" x="714.453125"/>
     <use xlink:href="#ArialMT-5d" x="770.068359"/>
    </g>
    <!-- class = No -->
    <g style="fill: #262626" transform="translate(273.853658 214.866656) scale(0.029583 -0.029583)">
     <use xlink:href="#ArialMT-63"/>
     <use xlink:href="#ArialMT-6c" x="50"/>
     <use xlink:href="#ArialMT-61" x="72.216797"/>
     <use xlink:href="#ArialMT-73" x="127.832031"/>
     <use xlink:href="#ArialMT-73" x="177.832031"/>
     <use xlink:href="#ArialMT-20" x="227.832031"/>
     <use xlink:href="#ArialMT-3d" x="255.615234"/>
     <use xlink:href="#ArialMT-20" x="314.013672"/>
     <use xlink:href="#ArialMT-4e" x="341.796875"/>
     <use xlink:href="#ArialMT-6f" x="414.013672"/>
    </g>
   </g>
   <g id="patch_24">
    <path d="M 362.23873 196.105979 
Q 344.707005 169.978053 326.552327 142.921726 
" style="fill: none; stroke: #262626; stroke-linecap: round"/>
    <path d="M 362.070711 194.793722 
L 362.23873 196.105979 
L 361.088113 195.453041 
" style="fill: none; stroke: #262626; stroke-linecap: round"/>
   </g>
   <g id="text_12">
    <g id="patch_25">
     <path d="M 355.115413 216.358493 
L 385.044587 216.358493 
Q 385.932063 216.358493 385.932063 215.471017 
L 385.932063 200.078316 
Q 385.932063 199.19084 385.044587 199.19084 
L 355.115413 199.19084 
Q 354.227937 199.19084 354.227937 200.078316 
L 354.227937 215.471017 
Q 354.227937 216.358493 355.115413 216.358493 
z
" style="fill: #e1f0fb; stroke: #ffffff; stroke-linejoin: miter"/>
    </g>
    <!-- TotalCharges &lt;= 0.145 -->
    <g style="fill: #262626" transform="translate(355.115413 202.266497) scale(0.029583 -0.029583)">
     <use xlink:href="#ArialMT-54"/>
     <use xlink:href="#ArialMT-6f" x="49.958984"/>
     <use xlink:href="#ArialMT-74" x="105.574219"/>
     <use xlink:href="#ArialMT-61" x="133.357422"/>
     <use xlink:href="#ArialMT-6c" x="188.972656"/>
     <use xlink:href="#ArialMT-43" x="211.189453"/>
     <use xlink:href="#ArialMT-68" x="283.40625"/>
     <use xlink:href="#ArialMT-61" x="339.021484"/>
     <use xlink:href="#ArialMT-72" x="394.636719"/>
     <use xlink:href="#ArialMT-67" x="427.9375"/>
     <use xlink:href="#ArialMT-65" x="483.552734"/>
     <use xlink:href="#ArialMT-73" x="539.167969"/>
     <use xlink:href="#ArialMT-20" x="589.167969"/>
     <use xlink:href="#ArialMT-3c" x="616.951172"/>
     <use xlink:href="#ArialMT-3d" x="675.349609"/>
     <use xlink:href="#ArialMT-20" x="733.748047"/>
     <use xlink:href="#ArialMT-30" x="761.53125"/>
     <use xlink:href="#ArialMT-2e" x="817.146484"/>
     <use xlink:href="#ArialMT-31" x="844.929688"/>
     <use xlink:href="#ArialMT-34" x="900.544922"/>
     <use xlink:href="#ArialMT-35" x="956.160156"/>
    </g>
    <!-- gini = 0.497 -->
    <g style="fill: #262626" transform="translate(362.39086 205.440607) scale(0.029583 -0.029583)">
     <use xlink:href="#ArialMT-67"/>
     <use xlink:href="#ArialMT-69" x="55.615234"/>
     <use xlink:href="#ArialMT-6e" x="77.832031"/>
     <use xlink:href="#ArialMT-69" x="133.447266"/>
     <use xlink:href="#ArialMT-20" x="155.664062"/>
     <use xlink:href="#ArialMT-3d" x="183.447266"/>
     <use xlink:href="#ArialMT-20" x="241.845703"/>
     <use xlink:href="#ArialMT-30" x="269.628906"/>
     <use xlink:href="#ArialMT-2e" x="325.244141"/>
     <use xlink:href="#ArialMT-34" x="353.027344"/>
     <use xlink:href="#ArialMT-39" x="408.642578"/>
     <use xlink:href="#ArialMT-37" x="464.257812"/>
    </g>
    <!-- samples = 1597 -->
    <g style="fill: #262626" transform="translate(359.5967 208.614717) scale(0.029583 -0.029583)">
     <use xlink:href="#ArialMT-73"/>
     <use xlink:href="#ArialMT-61" x="50"/>
     <use xlink:href="#ArialMT-6d" x="105.615234"/>
     <use xlink:href="#ArialMT-70" x="188.916016"/>
     <use xlink:href="#ArialMT-6c" x="244.53125"/>
     <use xlink:href="#ArialMT-65" x="266.748047"/>
     <use xlink:href="#ArialMT-73" x="322.363281"/>
     <use xlink:href="#ArialMT-20" x="372.363281"/>
     <use xlink:href="#ArialMT-3d" x="400.146484"/>
     <use xlink:href="#ArialMT-20" x="458.544922"/>
     <use xlink:href="#ArialMT-31" x="486.328125"/>
     <use xlink:href="#ArialMT-35" x="541.943359"/>
     <use xlink:href="#ArialMT-39" x="597.558594"/>
     <use xlink:href="#ArialMT-37" x="653.173828"/>
    </g>
    <!-- value = [734, 863] -->
    <g style="fill: #262626" transform="translate(358.279585 211.754161) scale(0.029583 -0.029583)">
     <use xlink:href="#ArialMT-76"/>
     <use xlink:href="#ArialMT-61" x="50"/>
     <use xlink:href="#ArialMT-6c" x="105.615234"/>
     <use xlink:href="#ArialMT-75" x="127.832031"/>
     <use xlink:href="#ArialMT-65" x="183.447266"/>
     <use xlink:href="#ArialMT-20" x="239.0625"/>
     <use xlink:href="#ArialMT-3d" x="266.845703"/>
     <use xlink:href="#ArialMT-20" x="325.244141"/>
     <use xlink:href="#ArialMT-5b" x="353.027344"/>
     <use xlink:href="#ArialMT-37" x="380.810547"/>
     <use xlink:href="#ArialMT-33" x="436.425781"/>
     <use xlink:href="#ArialMT-34" x="492.041016"/>
     <use xlink:href="#ArialMT-2c" x="547.65625"/>
     <use xlink:href="#ArialMT-20" x="575.439453"/>
     <use xlink:href="#ArialMT-38" x="603.222656"/>
     <use xlink:href="#ArialMT-36" x="658.837891"/>
     <use xlink:href="#ArialMT-33" x="714.453125"/>
     <use xlink:href="#ArialMT-5d" x="770.068359"/>
    </g>
    <!-- class = Yes -->
    <g style="fill: #262626" transform="translate(362.636533 214.883065) scale(0.029583 -0.029583)">
     <use xlink:href="#ArialMT-63"/>
     <use xlink:href="#ArialMT-6c" x="50"/>
     <use xlink:href="#ArialMT-61" x="72.216797"/>
     <use xlink:href="#ArialMT-73" x="127.832031"/>
     <use xlink:href="#ArialMT-73" x="177.832031"/>
     <use xlink:href="#ArialMT-20" x="227.832031"/>
     <use xlink:href="#ArialMT-3d" x="255.615234"/>
     <use xlink:href="#ArialMT-20" x="314.013672"/>
     <use xlink:href="#ArialMT-59" x="340.046875"/>
     <use xlink:href="#ArialMT-65" x="397.621094"/>
     <use xlink:href="#ArialMT-73" x="453.236328"/>
    </g>
   </g>
   <g id="patch_26">
    <path d="M 161.592542 130.300783 
Q 197.625431 103.450469 234.554825 75.932114 
" style="fill: none; stroke: #262626; stroke-linecap: round"/>
    <path d="M 162.894901 130.068165 
L 161.592542 130.300783 
L 162.187862 129.119325 
" style="fill: none; stroke: #262626; stroke-linecap: round"/>
   </g>
   <g id="text_13">
    <g id="patch_27">
     <path d="M 129.94286 149.831417 
L 163.81714 149.831417 
Q 164.704615 149.831417 164.704615 148.943942 
L 164.704615 133.549391 
Q 164.704615 132.661916 163.81714 132.661916 
L 129.94286 132.661916 
Q 129.055385 132.661916 129.055385 133.549391 
L 129.055385 148.943942 
Q 129.055385 149.831417 129.94286 149.831417 
z
" style="fill: #e78a47; stroke: #ffffff; stroke-linejoin: miter"/>
    </g>
    <!-- OnlineSecurity_No &lt;= 0.5 -->
    <g style="fill: #262626" transform="translate(129.94286 135.739421) scale(0.029583 -0.029583)">
     <defs>
      <path id="ArialMT-53" d="M 288 1472 
L 859 1522 
Q 900 1178 1048 958 
Q 1197 738 1509 602 
Q 1822 466 2213 466 
Q 2559 466 2825 569 
Q 3091 672 3220 851 
Q 3350 1031 3350 1244 
Q 3350 1459 3225 1620 
Q 3100 1781 2813 1891 
Q 2628 1963 1997 2114 
Q 1366 2266 1113 2400 
Q 784 2572 623 2826 
Q 463 3081 463 3397 
Q 463 3744 659 4045 
Q 856 4347 1234 4503 
Q 1613 4659 2075 4659 
Q 2584 4659 2973 4495 
Q 3363 4331 3572 4012 
Q 3781 3694 3797 3291 
L 3216 3247 
Q 3169 3681 2898 3903 
Q 2628 4125 2100 4125 
Q 1550 4125 1298 3923 
Q 1047 3722 1047 3438 
Q 1047 3191 1225 3031 
Q 1400 2872 2139 2705 
Q 2878 2538 3153 2413 
Q 3553 2228 3743 1945 
Q 3934 1663 3934 1294 
Q 3934 928 3725 604 
Q 3516 281 3123 101 
Q 2731 -78 2241 -78 
Q 1619 -78 1198 103 
Q 778 284 539 648 
Q 300 1013 288 1472 
z
" transform="scale(0.015625)"/>
     </defs>
     <use xlink:href="#ArialMT-4f"/>
     <use xlink:href="#ArialMT-6e" x="77.783203"/>
     <use xlink:href="#ArialMT-6c" x="133.398438"/>
     <use xlink:href="#ArialMT-69" x="155.615234"/>
     <use xlink:href="#ArialMT-6e" x="177.832031"/>
     <use xlink:href="#ArialMT-65" x="233.447266"/>
     <use xlink:href="#ArialMT-53" x="289.0625"/>
     <use xlink:href="#ArialMT-65" x="355.761719"/>
     <use xlink:href="#ArialMT-63" x="411.376953"/>
     <use xlink:href="#ArialMT-75" x="461.376953"/>
     <use xlink:href="#ArialMT-72" x="516.992188"/>
     <use xlink:href="#ArialMT-69" x="550.292969"/>
     <use xlink:href="#ArialMT-74" x="572.509766"/>
     <use xlink:href="#ArialMT-79" x="600.292969"/>
     <use xlink:href="#ArialMT-5f" x="650.292969"/>
     <use xlink:href="#ArialMT-4e" x="705.908203"/>
     <use xlink:href="#ArialMT-6f" x="778.125"/>
     <use xlink:href="#ArialMT-20" x="833.740234"/>
     <use xlink:href="#ArialMT-3c" x="861.523438"/>
     <use xlink:href="#ArialMT-3d" x="919.921875"/>
     <use xlink:href="#ArialMT-20" x="978.320312"/>
     <use xlink:href="#ArialMT-30" x="1006.103516"/>
     <use xlink:href="#ArialMT-2e" x="1061.71875"/>
     <use xlink:href="#ArialMT-35" x="1089.501953"/>
    </g>
    <!-- gini = 0.12 -->
    <g style="fill: #262626" transform="translate(140.013392 138.913531) scale(0.029583 -0.029583)">
     <use xlink:href="#ArialMT-67"/>
     <use xlink:href="#ArialMT-69" x="55.615234"/>
     <use xlink:href="#ArialMT-6e" x="77.832031"/>
     <use xlink:href="#ArialMT-69" x="133.447266"/>
     <use xlink:href="#ArialMT-20" x="155.664062"/>
     <use xlink:href="#ArialMT-3d" x="183.447266"/>
     <use xlink:href="#ArialMT-20" x="241.845703"/>
     <use xlink:href="#ArialMT-30" x="269.628906"/>
     <use xlink:href="#ArialMT-2e" x="325.244141"/>
     <use xlink:href="#ArialMT-31" x="353.027344"/>
     <use xlink:href="#ArialMT-32" x="408.642578"/>
    </g>
    <!-- samples = 2186 -->
    <g style="fill: #262626" transform="translate(136.3967 142.087642) scale(0.029583 -0.029583)">
     <use xlink:href="#ArialMT-73"/>
     <use xlink:href="#ArialMT-61" x="50"/>
     <use xlink:href="#ArialMT-6d" x="105.615234"/>
     <use xlink:href="#ArialMT-70" x="188.916016"/>
     <use xlink:href="#ArialMT-6c" x="244.53125"/>
     <use xlink:href="#ArialMT-65" x="266.748047"/>
     <use xlink:href="#ArialMT-73" x="322.363281"/>
     <use xlink:href="#ArialMT-20" x="372.363281"/>
     <use xlink:href="#ArialMT-3d" x="400.146484"/>
     <use xlink:href="#ArialMT-20" x="458.544922"/>
     <use xlink:href="#ArialMT-32" x="486.328125"/>
     <use xlink:href="#ArialMT-31" x="541.943359"/>
     <use xlink:href="#ArialMT-38" x="597.558594"/>
     <use xlink:href="#ArialMT-36" x="653.173828"/>
    </g>
    <!-- value = [2046, 140] -->
    <g style="fill: #262626" transform="translate(134.257053 145.227085) scale(0.029583 -0.029583)">
     <use xlink:href="#ArialMT-76"/>
     <use xlink:href="#ArialMT-61" x="50"/>
     <use xlink:href="#ArialMT-6c" x="105.615234"/>
     <use xlink:href="#ArialMT-75" x="127.832031"/>
     <use xlink:href="#ArialMT-65" x="183.447266"/>
     <use xlink:href="#ArialMT-20" x="239.0625"/>
     <use xlink:href="#ArialMT-3d" x="266.845703"/>
     <use xlink:href="#ArialMT-20" x="325.244141"/>
     <use xlink:href="#ArialMT-5b" x="353.027344"/>
     <use xlink:href="#ArialMT-32" x="380.810547"/>
     <use xlink:href="#ArialMT-30" x="436.425781"/>
     <use xlink:href="#ArialMT-34" x="492.041016"/>
     <use xlink:href="#ArialMT-36" x="547.65625"/>
     <use xlink:href="#ArialMT-2c" x="603.271484"/>
     <use xlink:href="#ArialMT-20" x="631.054688"/>
     <use xlink:href="#ArialMT-31" x="658.837891"/>
     <use xlink:href="#ArialMT-34" x="714.453125"/>
     <use xlink:href="#ArialMT-30" x="770.068359"/>
     <use xlink:href="#ArialMT-5d" x="825.683594"/>
    </g>
    <!-- class = No -->
    <g style="fill: #262626" transform="translate(139.933658 148.35599) scale(0.029583 -0.029583)">
     <use xlink:href="#ArialMT-63"/>
     <use xlink:href="#ArialMT-6c" x="50"/>
     <use xlink:href="#ArialMT-61" x="72.216797"/>
     <use xlink:href="#ArialMT-73" x="127.832031"/>
     <use xlink:href="#ArialMT-73" x="177.832031"/>
     <use xlink:href="#ArialMT-20" x="227.832031"/>
     <use xlink:href="#ArialMT-3d" x="255.615234"/>
     <use xlink:href="#ArialMT-20" x="314.013672"/>
     <use xlink:href="#ArialMT-4e" x="341.796875"/>
     <use xlink:href="#ArialMT-6f" x="414.013672"/>
    </g>
   </g>
   <g id="patch_28">
    <path d="M 310.727458 130.300783 
Q 274.694569 103.450469 237.765175 75.932114 
" style="fill: none; stroke: #262626; stroke-linecap: round"/>
    <path d="M 310.132138 129.119325 
L 310.727458 130.300783 
L 309.425099 130.068165 
" style="fill: none; stroke: #262626; stroke-linecap: round"/>
   </g>
   <g id="text_14">
    <g id="patch_29">
     <path d="M 308.420122 149.830493 
L 342.459878 149.830493 
Q 343.347353 149.830493 343.347353 148.943017 
L 343.347353 133.550316 
Q 343.347353 132.66284 342.459878 132.66284 
L 308.420122 132.66284 
Q 307.532647 132.66284 307.532647 133.550316 
L 307.532647 148.943017 
Q 307.532647 149.830493 308.420122 149.830493 
z
" style="fill: #f9e3d3; stroke: #ffffff; stroke-linejoin: miter"/>
    </g>
    <!-- MonthlyCharges &lt;= 0.501 -->
    <g style="fill: #262626" transform="translate(308.420122 135.738497) scale(0.029583 -0.029583)">
     <use xlink:href="#ArialMT-4d"/>
     <use xlink:href="#ArialMT-6f" x="83.300781"/>
     <use xlink:href="#ArialMT-6e" x="138.916016"/>
     <use xlink:href="#ArialMT-74" x="194.53125"/>
     <use xlink:href="#ArialMT-68" x="222.314453"/>
     <use xlink:href="#ArialMT-6c" x="277.929688"/>
     <use xlink:href="#ArialMT-79" x="300.146484"/>
     <use xlink:href="#ArialMT-43" x="350.146484"/>
     <use xlink:href="#ArialMT-68" x="422.363281"/>
     <use xlink:href="#ArialMT-61" x="477.978516"/>
     <use xlink:href="#ArialMT-72" x="533.59375"/>
     <use xlink:href="#ArialMT-67" x="566.894531"/>
     <use xlink:href="#ArialMT-65" x="622.509766"/>
     <use xlink:href="#ArialMT-73" x="678.125"/>
     <use xlink:href="#ArialMT-20" x="728.125"/>
     <use xlink:href="#ArialMT-3c" x="755.908203"/>
     <use xlink:href="#ArialMT-3d" x="814.306641"/>
     <use xlink:href="#ArialMT-20" x="872.705078"/>
     <use xlink:href="#ArialMT-30" x="900.488281"/>
     <use xlink:href="#ArialMT-2e" x="956.103516"/>
     <use xlink:href="#ArialMT-35" x="983.886719"/>
     <use xlink:href="#ArialMT-30" x="1039.501953"/>
     <use xlink:href="#ArialMT-31" x="1095.117188"/>
    </g>
    <!-- gini = 0.492 -->
    <g style="fill: #262626" transform="translate(317.75086 138.912607) scale(0.029583 -0.029583)">
     <use xlink:href="#ArialMT-67"/>
     <use xlink:href="#ArialMT-69" x="55.615234"/>
     <use xlink:href="#ArialMT-6e" x="77.832031"/>
     <use xlink:href="#ArialMT-69" x="133.447266"/>
     <use xlink:href="#ArialMT-20" x="155.664062"/>
     <use xlink:href="#ArialMT-3d" x="183.447266"/>
     <use xlink:href="#ArialMT-20" x="241.845703"/>
     <use xlink:href="#ArialMT-30" x="269.628906"/>
     <use xlink:href="#ArialMT-2e" x="325.244141"/>
     <use xlink:href="#ArialMT-34" x="353.027344"/>
     <use xlink:href="#ArialMT-39" x="408.642578"/>
     <use xlink:href="#ArialMT-32" x="464.257812"/>
    </g>
    <!-- samples = 2736 -->
    <g style="fill: #262626" transform="translate(314.9567 142.086717) scale(0.029583 -0.029583)">
     <use xlink:href="#ArialMT-73"/>
     <use xlink:href="#ArialMT-61" x="50"/>
     <use xlink:href="#ArialMT-6d" x="105.615234"/>
     <use xlink:href="#ArialMT-70" x="188.916016"/>
     <use xlink:href="#ArialMT-6c" x="244.53125"/>
     <use xlink:href="#ArialMT-65" x="266.748047"/>
     <use xlink:href="#ArialMT-73" x="322.363281"/>
     <use xlink:href="#ArialMT-20" x="372.363281"/>
     <use xlink:href="#ArialMT-3d" x="400.146484"/>
     <use xlink:href="#ArialMT-20" x="458.544922"/>
     <use xlink:href="#ArialMT-32" x="486.328125"/>
     <use xlink:href="#ArialMT-37" x="541.943359"/>
     <use xlink:href="#ArialMT-33" x="597.558594"/>
     <use xlink:href="#ArialMT-36" x="653.173828"/>
    </g>
    <!-- value = [1537, 1199] -->
    <g style="fill: #262626" transform="translate(312.103606 145.226161) scale(0.029583 -0.029583)">
     <use xlink:href="#ArialMT-76"/>
     <use xlink:href="#ArialMT-61" x="50"/>
     <use xlink:href="#ArialMT-6c" x="105.615234"/>
     <use xlink:href="#ArialMT-75" x="127.832031"/>
     <use xlink:href="#ArialMT-65" x="183.447266"/>
     <use xlink:href="#ArialMT-20" x="239.0625"/>
     <use xlink:href="#ArialMT-3d" x="266.845703"/>
     <use xlink:href="#ArialMT-20" x="325.244141"/>
     <use xlink:href="#ArialMT-5b" x="353.027344"/>
     <use xlink:href="#ArialMT-31" x="380.810547"/>
     <use xlink:href="#ArialMT-35" x="436.425781"/>
     <use xlink:href="#ArialMT-33" x="492.041016"/>
     <use xlink:href="#ArialMT-37" x="547.65625"/>
     <use xlink:href="#ArialMT-2c" x="603.271484"/>
     <use xlink:href="#ArialMT-20" x="631.054688"/>
     <use xlink:href="#ArialMT-31" x="658.837891"/>
     <use xlink:href="#ArialMT-31" x="707.078125"/>
     <use xlink:href="#ArialMT-39" x="762.693359"/>
     <use xlink:href="#ArialMT-39" x="818.308594"/>
     <use xlink:href="#ArialMT-5d" x="873.923828"/>
    </g>
    <!-- class = No -->
    <g style="fill: #262626" transform="translate(318.493658 148.355065) scale(0.029583 -0.029583)">
     <use xlink:href="#ArialMT-63"/>
     <use xlink:href="#ArialMT-6c" x="50"/>
     <use xlink:href="#ArialMT-61" x="72.216797"/>
     <use xlink:href="#ArialMT-73" x="127.832031"/>
     <use xlink:href="#ArialMT-73" x="177.832031"/>
     <use xlink:href="#ArialMT-20" x="227.832031"/>
     <use xlink:href="#ArialMT-3d" x="255.615234"/>
     <use xlink:href="#ArialMT-20" x="314.013672"/>
     <use xlink:href="#ArialMT-4e" x="341.796875"/>
     <use xlink:href="#ArialMT-6f" x="414.013672"/>
    </g>
   </g>
   <g id="patch_30">
    <path d="M 236.16 74.736 
Q 236.16 74.736 236.16 74.736 
" style="fill: none; stroke: #262626; stroke-linecap: round"/>
   </g>
   <g id="text_15">
    <g id="patch_31">
     <path d="M 214.702515 83.285159 
L 257.617485 83.285159 
Q 258.50496 83.285159 258.50496 82.397684 
L 258.50496 67.074316 
Q 258.50496 66.186841 257.617485 66.186841 
L 214.702515 66.186841 
Q 213.81504 66.186841 213.81504 67.074316 
L 213.81504 82.397684 
Q 213.81504 83.285159 214.702515 83.285159 
z
" style="fill: #efb083; stroke: #ffffff; stroke-linejoin: miter"/>
    </g>
    <!-- Contract_Month-to-month &lt;= 0.5 -->
    <g style="fill: #262626" transform="translate(214.702515 69.22783) scale(0.029583 -0.029583)">
     <defs>
      <path id="ArialMT-2d" d="M 203 1375 
L 203 1941 
L 1931 1941 
L 1931 1375 
L 203 1375 
z
" transform="scale(0.015625)"/>
     </defs>
     <use xlink:href="#ArialMT-43"/>
     <use xlink:href="#ArialMT-6f" x="72.216797"/>
     <use xlink:href="#ArialMT-6e" x="127.832031"/>
     <use xlink:href="#ArialMT-74" x="183.447266"/>
     <use xlink:href="#ArialMT-72" x="211.230469"/>
     <use xlink:href="#ArialMT-61" x="244.53125"/>
     <use xlink:href="#ArialMT-63" x="300.146484"/>
     <use xlink:href="#ArialMT-74" x="350.146484"/>
     <use xlink:href="#ArialMT-5f" x="377.929688"/>
     <use xlink:href="#ArialMT-4d" x="433.544922"/>
     <use xlink:href="#ArialMT-6f" x="516.845703"/>
     <use xlink:href="#ArialMT-6e" x="572.460938"/>
     <use xlink:href="#ArialMT-74" x="628.076172"/>
     <use xlink:href="#ArialMT-68" x="655.859375"/>
     <use xlink:href="#ArialMT-2d" x="711.474609"/>
     <use xlink:href="#ArialMT-74" x="744.775391"/>
     <use xlink:href="#ArialMT-6f" x="772.558594"/>
     <use xlink:href="#ArialMT-2d" x="828.173828"/>
     <use xlink:href="#ArialMT-6d" x="861.474609"/>
     <use xlink:href="#ArialMT-6f" x="944.775391"/>
     <use xlink:href="#ArialMT-6e" x="1000.390625"/>
     <use xlink:href="#ArialMT-74" x="1056.005859"/>
     <use xlink:href="#ArialMT-68" x="1083.789062"/>
     <use xlink:href="#ArialMT-20" x="1139.404297"/>
     <use xlink:href="#ArialMT-3c" x="1167.1875"/>
     <use xlink:href="#ArialMT-3d" x="1225.585938"/>
     <use xlink:href="#ArialMT-20" x="1283.984375"/>
     <use xlink:href="#ArialMT-30" x="1311.767578"/>
     <use xlink:href="#ArialMT-2e" x="1367.382812"/>
     <use xlink:href="#ArialMT-35" x="1395.166016"/>
    </g>
    <!-- gini = 0.396 -->
    <g style="fill: #262626" transform="translate(228.47086 72.367273) scale(0.029583 -0.029583)">
     <use xlink:href="#ArialMT-67"/>
     <use xlink:href="#ArialMT-69" x="55.615234"/>
     <use xlink:href="#ArialMT-6e" x="77.832031"/>
     <use xlink:href="#ArialMT-69" x="133.447266"/>
     <use xlink:href="#ArialMT-20" x="155.664062"/>
     <use xlink:href="#ArialMT-3d" x="183.447266"/>
     <use xlink:href="#ArialMT-20" x="241.845703"/>
     <use xlink:href="#ArialMT-30" x="269.628906"/>
     <use xlink:href="#ArialMT-2e" x="325.244141"/>
     <use xlink:href="#ArialMT-33" x="353.027344"/>
     <use xlink:href="#ArialMT-39" x="408.642578"/>
     <use xlink:href="#ArialMT-36" x="464.257812"/>
    </g>
    <!-- samples = 4922 -->
    <g style="fill: #262626" transform="translate(225.6767 75.541384) scale(0.029583 -0.029583)">
     <use xlink:href="#ArialMT-73"/>
     <use xlink:href="#ArialMT-61" x="50"/>
     <use xlink:href="#ArialMT-6d" x="105.615234"/>
     <use xlink:href="#ArialMT-70" x="188.916016"/>
     <use xlink:href="#ArialMT-6c" x="244.53125"/>
     <use xlink:href="#ArialMT-65" x="266.748047"/>
     <use xlink:href="#ArialMT-73" x="322.363281"/>
     <use xlink:href="#ArialMT-20" x="372.363281"/>
     <use xlink:href="#ArialMT-3d" x="400.146484"/>
     <use xlink:href="#ArialMT-20" x="458.544922"/>
     <use xlink:href="#ArialMT-34" x="486.328125"/>
     <use xlink:href="#ArialMT-39" x="541.943359"/>
     <use xlink:href="#ArialMT-32" x="597.558594"/>
     <use xlink:href="#ArialMT-32" x="653.173828"/>
    </g>
    <!-- value = [3583, 1339] -->
    <g style="fill: #262626" transform="translate(222.71452 78.680827) scale(0.029583 -0.029583)">
     <use xlink:href="#ArialMT-76"/>
     <use xlink:href="#ArialMT-61" x="50"/>
     <use xlink:href="#ArialMT-6c" x="105.615234"/>
     <use xlink:href="#ArialMT-75" x="127.832031"/>
     <use xlink:href="#ArialMT-65" x="183.447266"/>
     <use xlink:href="#ArialMT-20" x="239.0625"/>
     <use xlink:href="#ArialMT-3d" x="266.845703"/>
     <use xlink:href="#ArialMT-20" x="325.244141"/>
     <use xlink:href="#ArialMT-5b" x="353.027344"/>
     <use xlink:href="#ArialMT-33" x="380.810547"/>
     <use xlink:href="#ArialMT-35" x="436.425781"/>
     <use xlink:href="#ArialMT-38" x="492.041016"/>
     <use xlink:href="#ArialMT-33" x="547.65625"/>
     <use xlink:href="#ArialMT-2c" x="603.271484"/>
     <use xlink:href="#ArialMT-20" x="631.054688"/>
     <use xlink:href="#ArialMT-31" x="658.837891"/>
     <use xlink:href="#ArialMT-33" x="714.453125"/>
     <use xlink:href="#ArialMT-33" x="770.068359"/>
     <use xlink:href="#ArialMT-39" x="825.683594"/>
     <use xlink:href="#ArialMT-5d" x="881.298828"/>
    </g>
    <!-- class = No -->
    <g style="fill: #262626" transform="translate(229.213658 81.809732) scale(0.029583 -0.029583)">
     <use xlink:href="#ArialMT-63"/>
     <use xlink:href="#ArialMT-6c" x="50"/>
     <use xlink:href="#ArialMT-61" x="72.216797"/>
     <use xlink:href="#ArialMT-73" x="127.832031"/>
     <use xlink:href="#ArialMT-73" x="177.832031"/>
     <use xlink:href="#ArialMT-20" x="227.832031"/>
     <use xlink:href="#ArialMT-3d" x="255.615234"/>
     <use xlink:href="#ArialMT-20" x="314.013672"/>
     <use xlink:href="#ArialMT-4e" x="341.796875"/>
     <use xlink:href="#ArialMT-6f" x="414.013672"/>
    </g>
   </g>
  </g>
 </g>
</svg>
